<svg version="1.1" id="Layer_1" xmlns="http://www.w3.org/2000/svg" x="0" y="0" viewBox="0 0 92.19 46.47" style="enable-background:new 0 0 92.19 46.47" xml:space="preserve"><style>.st0{fill:#2c269a}.st1{fill:#82dbe1}</style><path class="st0" d="M73.52 44.58H8.51L1.24 30.55l.16-.34L14.71 1.89h64.95l7.25 14.07-13.39 28.62zm-64.1-1.5h63.14L85.24 16 78.75 3.4H15.67L2.91 30.52l6.51 12.56z"/><path class="st1" d="M73.52 44.58H8.51L1.24 30.55l.16-.34L14.71 1.89h64.95l7.25 14.07-13.39 28.62zm-64.1-1.5h63.14L85.24 16 78.75 3.4H15.67L2.91 30.52l6.51 12.56z"/><path class="st1" d="M14.71 1.89h64.04l6.49 14.1-12.68 27.09H9.42L2.91 30.52z"/><path class="st0" d="M18.05 15.4h4.11c4.14 0 7.52 3.36 7.52 7.52s-3.38 7.52-7.52 7.52h-4.11V15.4zm4.09 13.44c3.34 0 5.94-2.53 5.94-5.92S25.48 17 22.14 17h-2.51v11.83h2.51zM42.33 19.58c0 2.33-1.86 4.16-4.19 4.16h-3.79v6.7h-1.6V15.4h5.39a4.18 4.18 0 0 1 4.19 4.18zm-1.6.03c0-1.6-1.23-2.66-2.73-2.66h-3.64v5.27H38c1.5 0 2.73-.96 2.73-2.61zM59.51 22.47v.45c0 4.26-3.46 7.72-7.72 7.72-4.29 0-7.72-3.46-7.72-7.72s3.44-7.72 7.72-7.72a7.65 7.65 0 0 1 6.69 3.91l-1.38.78c-1.03-1.86-3.03-3.08-5.31-3.08-3.39 0-6.12 2.71-6.12 6.12s2.73 6.12 6.12 6.12c3.03 0 5.54-2.16 6.02-5.07h-6.04v-1.5h7.74zM67.42 11.04h19.92v19.92H67.42z"/><path transform="rotate(30 77.338 20.914)" class="st0" d="M67.38 10.96H87.3v19.92H67.38z"/><path transform="rotate(-30 77.336 20.921)" class="st0" d="M67.38 10.96H87.3v19.92H67.38z"/><path style="fill:none;stroke:#fff;stroke-miterlimit:10" d="m72.34 21.15 3.78 3.78 7.36-7.36"/></svg>