<svg width="249" height="260" viewBox="0 0 249 260" fill="none" xmlns="http://www.w3.org/2000/svg"><path d="M48.227 43.175a7.987 7.987 0 0 1 7.994-7.994l106.314.073a8.014 8.014 0 0 1 8.006 8.006l.113 164.191a7.987 7.987 0 0 1-7.995 7.994l-106.314-.073a8.013 8.013 0 0 1-8.005-8.006l-.113-164.19z" stroke="#fff" stroke-width="4"/><path d="M56.96 52.266a7.987 7.987 0 0 1 7.995-7.994l106.314.073a8.013 8.013 0 0 1 8.005 8.006l.113 164.191a7.986 7.986 0 0 1-7.994 7.994l-106.314-.073a8.013 8.013 0 0 1-8.006-8.006l-.112-164.19zM195.743 66.08a5.168 5.168 0 0 1 5.174-5.174 5.189 5.189 0 0 1 5.183 5.183l.115 139.319c.001 1.51-.418 2.966-1.225 4.195-.929 1.415-2.118 3.174-3.16 4.569-.297.396-.571.749-.816 1.048-.244-.3-.516-.653-.809-1.05-1.037-1.4-2.217-3.165-3.138-4.581a7.625 7.625 0 0 1-1.209-4.16l-.115-139.349z" stroke="#fff" stroke-width="4"/></svg>