<svg width="204" height="213" viewBox="0 0 204 213" fill="none" xmlns="http://www.w3.org/2000/svg"><path d="M120.859 29.446s-.574 20.547-4.972 25.928c-4.399 5.38-9.01 10.885-13.468 10.885M83.98 29.446s.573 20.547 4.972 25.928c4.399 5.38 9.01 10.885 13.467 10.885M111.639 13.55s-6.584 9.417-12.275 11.062c-5.692 1.645-13.708 3.998-13.708 3.998M110.801 16.896s6.709 2.96 9.22 10.04M113.315 2.945S83.307-6.216 78.95 27.773M123.067 29.446s4.561 2.263-1.37 14.223M80.31 29.447s-4.345 2.65 2.607 14.05M115.83 3.51s11.291 11.18 8.755 24.263M118.344 55.382s4.742 3.504 5.656 9.044c.904 5.475-1.263 8.859-3.231 11.873M115.422 61.349s4.661 5.746 2.492 14.004M92.36 62.912s1.677 8.53 0 11.714M111.639 62.912s-1.676 8.53 0 11.714M92.36 74.626s-14.623 6.268-24.498 7.004c-9.875.736-11.543 18.095-11.543 18.095M111.639 74.626s14.624 6.268 24.499 7.004c9.875.736 11.543 18.095 11.543 18.095M56.32 99.725s-1.311 17.585-2.119 22.028c-.807 4.443-27.877 43.429-28.894 44.904M69.73 120.641s-.157 2.587-.955 7.059c-.798 4.472-33.244 41.656-34.248 43.141M70.568 120.641s3.854 22.446 4.191 30.12M74.76 150.761s9.918 3.347 26.821 3.347M74.76 150.761s-.442 9.918-2.515 14.223M87.332 77.135s2.813 24.263 14.249 24.263M116.668 77.135s-2.813 24.263-14.249 24.263" stroke="#fff" stroke-width="3" stroke-linecap="round"/><path d="M81.465 78.809s-1.573 8.023-5.452 16.957c-3.88 8.934-5.878 21.673-5.365 24.875M147.68 99.725s1.311 17.585 2.119 22.028c.807 4.443 27.877 43.429 28.894 44.904M133.431 120.641s.158 2.587.956 7.059c.797 4.472 33.243 41.656 34.248 43.141M133.432 120.641s-3.854 22.446-4.191 30.12M129.241 150.761s-9.919 3.347-26.822 3.347M128.402 150.761s.441 9.918 2.515 14.223M122.536 78.809s-.066 3.707 5.407 16.957c5.473 13.249 5.83 21.673 5.321 24.875M25.307 167.494l-9.152 1.3s-3.361 4.74-2.347 5.393M35.365 170.841l-4.426 8.476s-12.42 8.205-13.895 8.255c-1.475.051-10.736-1.162-9.158-3.537 1.578-2.375 8.431-8.939 8.431-8.939M179.531 167.494l9.152 1.3s3.361 4.74 2.348 5.393M169.473 170.841l4.426 8.476s12.421 8.205 13.895 8.255c1.475.051 10.737-1.162 9.159-3.537-1.579-2.375-8.432-8.939-8.432-8.939M72.245 165.821s-35.367 6.685-38.556 9.203M131.755 164.984s35.367 6.686 38.556 9.203" stroke="#fff" stroke-width="3" stroke-linecap="round"/><path d="M196.495 185.9s13.01 10.2 0 18.425c-13.01 8.225-55.518 2.706-97.429-3.15M7.503 185.9s-13.007 10.103 0 18.25c13.007 8.148 57.206 8.85 99.107 3.049M173.664 189.247s-15.866-5.02-72.921 0M107.448 206.817l-1.676-5.02M31.174 190.723s18.966-3.277 67.054 10.237M100.743 189.247s-4.906 2.897-5.867 9.203M97.39 190.56s-6.855-2.262-9.22 6.217M108.286 206.817s6.84-.644 10.058-1.674" stroke="#fff" stroke-width="3" stroke-linecap="round"/></svg>