<svg width="203" height="243" viewBox="0 0 203 243" fill="none" xmlns="http://www.w3.org/2000/svg"><path d="M49.637 36.864a8 8 0 0 1 8-8l87.16-.003a8 8 0 0 1 8 8l-.005 168.51a8 8 0 0 1-8 8l-87.16.003a8 8 0 0 1-7.999-8l.004-168.51z" stroke="#fff" stroke-width="4"/><path d="M49.635 47.315a8 8 0 0 1 8-8l87.159-.002a8 8 0 0 1 8 8l-.004 139.328a8 8 0 0 1-8 8l-87.16.002a8 8 0 0 1-8-8l.005-139.328z" stroke="#fff" stroke-width="4"/><path d="M82.695 63.132a8 8 0 0 1 8-8l48.81-.001a8 8 0 0 1 8 8v20.078a8.001 8.001 0 0 1-8.001 8l-48.81.001a8 8 0 0 1-8-8l.001-20.078zM55.393 110.526c0-4.419 3.582-8 8-8.001l48.81-.001a8 8 0 0 1 8 8l-.001 20.078a8 8 0 0 1-8 8l-48.81.002a8 8 0 0 1-8-8v-20.078zM100.678 156.007a8.002 8.002 0 0 1 8.001-8.001h30.502a8 8 0 0 1 8 7.999l-.001 4.324a8 8 0 0 1-8 8l-30.502.001a8 8 0 0 1-8-8v-4.323z" stroke="#fff" stroke-width="4"/><path fill-rule="evenodd" clip-rule="evenodd" d="M114.249 162.16a3.974 3.974 0 0 0 2.805-4.869 3.973 3.973 0 0 0-4.864-2.814 3.972 3.972 0 0 0-2.805 4.869 3.972 3.972 0 0 0 4.864 2.814z" fill="#fff" fill-opacity=".2"/><path fill-rule="evenodd" clip-rule="evenodd" d="M124.649 162.119a3.975 3.975 0 0 0 2.805-4.869 3.975 3.975 0 0 0-4.864-2.815 3.973 3.973 0 0 0-2.805 4.869 3.974 3.974 0 0 0 4.864 2.815z" fill="#fff" fill-opacity=".6"/><path fill-rule="evenodd" clip-rule="evenodd" d="M135.049 162.077a3.973 3.973 0 0 0 2.805-4.869 3.973 3.973 0 0 0-4.864-2.814 3.973 3.973 0 0 0-2.805 4.869 3.973 3.973 0 0 0 4.864 2.814z" fill="#fff"/></svg>