<svg width="1440" height="717" viewBox="0 0 1440 717" fill="none" xmlns="http://www.w3.org/2000/svg"><g opacity=".147"><path fill="none" d="M-154 0h1765v717H-154z"/><g opacity=".7"><path fill="none" d="M1041 0h570v717h-570z"/><path fill="none" d="M1041.97.022h568.77v716.245h-568.77z"/><path d="M1195.31 10.199c1.14-4.268 5.53-6.8 9.8-5.657l375.75 100.683a8.003 8.003 0 0 1 5.66 9.798L1437.7 670.428c-1.15 4.267-5.53 6.8-9.8 5.656l-375.75-100.683c-4.27-1.143-6.81-5.53-5.66-9.798l148.82-555.404z" stroke="#fff" stroke-width="4"/><path d="M1215.01 45.861c1.14-4.268 5.53-6.8 9.8-5.657l375.75 100.683a8.003 8.003 0 0 1 5.66 9.798L1457.4 706.09c-1.15 4.268-5.53 6.8-9.8 5.657l-375.75-100.683c-4.27-1.144-6.81-5.53-5.66-9.798l148.82-555.405z" stroke="#fff" stroke-width="4"/></g><g opacity=".7"><path fill="none" d="M982 190h117v335H982z"/><path d="M1068.68 200.818c1.15-4.268 5.53-6.801 9.8-5.657l10.18 2.727a8.002 8.002 0 0 1 5.66 9.797l-78.66 293.546a7.794 7.794 0 0 1-2.28 3.763c-2.38 2.153-6.37 5.7-9.99 8.638-1.81 1.474-3.495 2.762-4.816 3.641-.488.324-.897.573-1.225.75a15.803 15.803 0 0 1-.675-1.257c-.697-1.421-1.498-3.377-2.32-5.559-1.638-4.352-3.286-9.413-4.249-12.457a7.757 7.757 0 0 1-.083-4.359l78.658-293.573zm-71.951 317.488c-.012.002-.009.001.006-.002l-.006.002z" stroke="#fff" stroke-width="4"/></g><path fill="none" d="M-154 323h354v276h-354z"/><path d="M-71.379 333.206a8 8 0 0 1 9.798-5.657l250.514 67.125a8 8 0 0 1 5.657 9.798L150.175 570.23a8 8 0 0 1-9.798 5.656l-250.514-67.125a8 8 0 0 1-5.657-9.798l44.415-165.757z" stroke="#fff" stroke-width="4"/><path d="M-104.217 351.042a7.999 7.999 0 0 1 9.798-5.657l250.514 67.125a8 8 0 0 1 5.656 9.798l-44.414 165.758a8 8 0 0 1-9.798 5.657l-250.514-67.125a8 8 0 0 1-5.657-9.798l44.415-165.758z" stroke="#fff" stroke-width="4"/></g></svg>