<svg width="1440" height="1006" viewBox="0 0 1440 1006" fill="none" xmlns="http://www.w3.org/2000/svg"><g opacity=".147"><path fill="none" d="M-390 0h1862v1006H-390z"/><g opacity=".7"><path fill="none" d="M-390 289h570v717h-570z"/><path fill="none" d="M-389.032 289.022h568.77v716.245h-568.77z"/><path d="M-235.691 299.199a7.999 7.999 0 0 1 9.797-5.657l375.755 100.683a8 8 0 0 1 5.657 9.798L6.698 959.428a8.001 8.001 0 0 1-9.799 5.657l-375.754-100.684a8 8 0 0 1-5.657-9.797l148.821-555.405z" stroke="#fff" stroke-width="4"/><path d="M-215.991 334.861a8 8 0 0 1 9.798-5.657l375.754 100.683a8 8 0 0 1 5.657 9.798L26.398 995.09a8.005 8.005 0 0 1-9.798 5.66l-375.755-100.686a8.001 8.001 0 0 1-5.657-9.798l148.821-555.405z" stroke="#fff" stroke-width="4"/></g><g opacity=".7"><path fill="none" d="M85 559h117v335H85z"/><path d="M171.684 569.818a8 8 0 0 1 9.798-5.657l10.177 2.727a8 8 0 0 1 5.657 9.798l-78.655 293.545a7.774 7.774 0 0 1-2.284 3.763c-2.38 2.153-6.368 5.7-9.985 8.638-1.815 1.474-3.497 2.762-4.818 3.641-.488.324-.897.573-1.225.75-.193-.316-.42-.734-.675-1.257-.697-1.421-1.498-3.377-2.32-5.559-1.638-4.352-3.286-9.413-4.25-12.457a7.767 7.767 0 0 1-.082-4.359l78.662-293.573zM99.729 887.306c-.012.002-.01.001.006-.002l-.006.002z" stroke="#fff" stroke-width="4"/></g><path fill="none" d="M160 0h354v276H160z"/><path d="M242.621 10.206a8 8 0 0 1 9.798-5.657l250.514 67.125a8 8 0 0 1 5.657 9.798L464.175 247.23a8 8 0 0 1-9.798 5.656l-250.514-67.125a8 8 0 0 1-5.657-9.798l44.415-165.757z" stroke="#fff" stroke-width="4"/><path d="M209.783 28.042a8 8 0 0 1 9.798-5.657L470.095 89.51a8 8 0 0 1 5.656 9.798l-44.414 165.758a8.002 8.002 0 0 1-9.798 5.657l-250.514-67.125a8 8 0 0 1-5.657-9.798l44.415-165.758z" stroke="#fff" stroke-width="4"/><g opacity=".4"><path fill="none" d="M885 727h354v276H885z"/><path d="M967.621 737.206a8 8 0 0 1 9.798-5.657l250.511 67.125a8.003 8.003 0 0 1 5.66 9.798l-44.41 165.758c-1.15 4.267-5.54 6.8-9.8 5.656l-250.517-67.125a8 8 0 0 1-5.657-9.798l44.415-165.757z" stroke="#fff" stroke-width="4"/><path d="M934.783 755.042a8 8 0 0 1 9.798-5.657l250.509 67.125a8.003 8.003 0 0 1 5.66 9.798l-44.41 165.758c-1.15 4.267-5.53 6.8-9.8 5.657l-250.515-67.125a8 8 0 0 1-5.657-9.798l44.415-165.758z" stroke="#fff" stroke-width="4"/></g><path fill="none" d="M1201 276h271v372h-271z"/><path d="M1287.68 286.227c1.15-4.268 5.53-6.801 9.8-5.657l164.02 43.949a8.003 8.003 0 0 1 5.66 9.798l-81.25 303.233c-1.15 4.267-5.53 6.8-9.8 5.656l-164.02-43.949a8.003 8.003 0 0 1-5.66-9.798l81.25-303.232z" stroke="#fff" stroke-width="4"/><path d="M1282.89 304.108c1.14-4.267 5.53-6.8 9.8-5.657l164.02 43.949c4.26 1.144 6.8 5.531 5.65 9.798l-67.87 253.301c-1.14 4.268-5.53 6.801-9.8 5.657l-164.02-43.949c-4.26-1.143-6.8-5.53-5.65-9.798l67.87-253.301z" stroke="#fff" stroke-width="4"/><path fill="none" d="M1246.04 336.153h204.54v231.93h-204.54z"/><path d="M1332.2 346.33c1.14-4.268 5.53-6.8 9.8-5.657l98.41 26.369c4.26 1.143 6.8 5.53 5.65 9.798l-13.19 49.257c-1.15 4.268-5.54 6.801-9.8 5.657l-98.41-26.368a8.003 8.003 0 0 1-5.66-9.798l13.2-49.258zM1263.76 414.906c1.15-4.268 5.53-6.801 9.8-5.657l98.41 26.368a8.003 8.003 0 0 1 5.66 9.798l-13.2 49.258c-1.15 4.268-5.53 6.8-9.8 5.657l-98.41-26.369a8.003 8.003 0 0 1-5.66-9.798l13.2-49.257zM1320.39 513.489c1.14-4.268 5.53-6.8 9.8-5.657l67.08 17.976a8.003 8.003 0 0 1 5.66 9.798l-5.97 22.3c-1.15 4.268-5.53 6.8-9.8 5.657l-67.09-17.976a7.989 7.989 0 0 1-5.65-9.798l5.97-22.3z" stroke="#fff" stroke-width="4"/><path fill="none" d="M1333.25 524h49.688v23.485h-49.688z"/><path fill-rule="evenodd" clip-rule="evenodd" d="M1340.28 538.091c3.88 0 7.03-3.154 7.03-7.046 0-3.891-3.15-7.045-7.03-7.045-3.88 0-7.03 3.154-7.03 7.045 0 3.892 3.15 7.046 7.03 7.046z" fill="#fff" fill-opacity=".2"/><path fill-rule="evenodd" clip-rule="evenodd" d="M1358.09 542.788c3.89 0 7.03-3.154 7.03-7.046 0-3.891-3.14-7.045-7.03-7.045-3.88 0-7.03 3.154-7.03 7.045 0 3.892 3.15 7.046 7.03 7.046z" fill="#fff" fill-opacity=".6"/><path fill-rule="evenodd" clip-rule="evenodd" d="M1375.91 547.485c3.88 0 7.03-3.154 7.03-7.046 0-3.891-3.15-7.045-7.03-7.045-3.89 0-7.03 3.154-7.03 7.045 0 3.892 3.14 7.046 7.03 7.046z" fill="#fff"/></g></svg>