<svg version="1.1" id="welcome" xmlns="http://www.w3.org/2000/svg" x="0" y="0" viewBox="0 0 2000 1000" xml:space="preserve" shape-rendering="optimizeSpeed"><style>.st6{fill:#6b6241}.st105{fill:#872246}.st164{fill:#6d0839}.st178{fill:#89484f}.st204{fill:#924652}</style><path d="M619-285l194 12 244-12H619z" fill="#9e6b61"/><path d="M1509 1181l-272 15 425 8-153-23z" fill="#825f48"/><path d="M1662 1204l-425-8 660 52-235-44z" fill="#7f6d4a"/><path d="M1237 1196l-473 78 1133-26-660-52z" fill="#79313e"/><path d="M1057-285l302 24 587 6-889-30z" fill="#863c47"/><path d="M1359-261l417 58 170-52-587-6z" fill="#89674e"/><path class="st6" d="M2099 1165l-202 83 326-58-124-25z"/><path d="M2199 1060l24 130 45-324-69 194z" fill="#727748"/><path d="M2200 728l68 138 2-359-70 221z" fill="#78353e"/><path d="M2270 507l-2 359 43-589-41 230z" fill="#7f4347"/><path d="M2090 291l180 216 41-230-221 14z" fill="#948762"/><path d="M2136 150l136 30 50-223-186 193z" fill="#713f41"/><path d="M2126-38l10 188 186-193-196 5z" fill="#69323a"/><path d="M2272 180l39 97 11-320-50 223z" fill="#724043"/><path d="M1057-285l889 30 379 11-1268-41z" fill="#887550"/><path d="M1946-255l96 41 283-30-379-11z" fill="#70413f"/><path d="M2126-38l196-5 3-201-199 206z" fill="#612135"/><path d="M2042-214l84 176 199-206-283 30z" fill="#6a353a"/><path d="M2079 617l121 111 70-221-191 110z" fill="#814446"/><path d="M2272 180l-182 111 221-14-39-97z" fill="#897158"/><path d="M1359-261l123 47 294 11-417-58z" fill="#884c49"/><path d="M2088 1027l111 33 69-194-180 161z" fill="#7a9050"/><path d="M2133 796l-45 231 180-161-135-70z" fill="#807d4d"/><path d="M2200 728l-67 68 135 70-68-138z" fill="#7e5b46"/><path d="M2090 291l-68 263 248-47-180-216z" fill="#95805d"/><path d="M2136 150l-46 141 182-111-136-30z" fill="#887055"/><path d="M2022 554l57 63 191-110-248 47z" fill="#8d6150"/><path class="st6" d="M2199 1060l-100 105 124 25-24-130z"/><path d="M2088 1027l11 138 100-105-111-33z" fill="#747d4a"/><path d="M2079 617l54 179 67-68-121-111z" fill="#834f47"/><path d="M1957 299l65 255 68-263-133 8z" fill="#a1a96d"/><path d="M2042-214L1927-55l199 17-84-176z" fill="#765043"/><path d="M2079 617l-141-1 195 180-54-179z" fill="#8a564a"/><path d="M1843 899l245 128 45-231-290 103z" fill="#889c56"/><path d="M1957 299l133-8 46-141-179 149z" fill="#959162"/><path d="M1965 74l-8 225 179-149-171-76z" fill="#8e835a"/><path d="M2126-38L1965 74l171 76-10-188z" fill="#7a5547"/><path d="M1938 616l-95 283 290-103-195-180z" fill="#918054"/><path d="M1927-55l38 129 161-112-199-17z" fill="#785545"/><path d="M1957 299l-61 235 126 20-65-255z" fill="#a19e67"/><path d="M1843 899l89 177 156-49-245-128z" fill="#84ba5c"/><path d="M2088 1027l-156 49 167 89-11-138z" fill="#798c4f"/><path d="M1932 1076l-35 172 202-83-167-89z" fill="#75804b"/><path d="M2022 554l-84 62 141 1-57-63z" fill="#936d54"/><path d="M1306 1181l-69 15 272-15h-203z" fill="#824d46"/><path d="M1779 840l64 59 95-283-159 224z" fill="#999c5c"/><path d="M1946-255l-19 200 115-159-96-41z" fill="#7b5b47"/><path d="M1896 534l42 82 84-62-126-20z" fill="#9b815b"/><path d="M1747 661l32 179 159-224-191 45z" fill="#9e8c5a"/><path d="M1776-203l151 148 19-200-170 52z" fill="#836c4c"/><path d="M1734 445l162 89 61-235-223 146z" fill="#a9bd72"/><path d="M1714 342l20 103 223-146-243 43z" fill="#aed97d"/><path d="M1722 159l235 140 8-225-243 85z" fill="#98a064"/><path d="M1927-55l-205 214 243-85-38-129z" fill="#8a7d54"/><path d="M1722 159l-8 183 243-43-235-140z" fill="#a7c975"/><path d="M1653-1l69 160 205-214-274 54z" fill="#8b7a53"/><path d="M1693 1047l204 201 35-172-239-29z" fill="#80a857"/><path d="M1843 899l-150 148 239 29-89-177z" fill="#89d364"/><path d="M1896 534l-149 127 191-45-42-82z" fill="#a0895c"/><path d="M1693 1047l-31 157 235 44-204-201z" fill="#809653"/><path d="M1776-203L1653-1l274-54-151-148z" fill="#887751"/><path d="M1734 445l13 216 149-127-162-89z" fill="#a7a166"/><path d="M1066 1189l-302 85 473-78-171-7z" fill="#8a5f51"/><path d="M1779 840l-86 207 150-148-64-59z" fill="#93c663"/><path d="M1734 445l-193 81 206 135-13-216z" fill="#a98e63"/><path d="M1506-60l147 59 123-202-270 143z" fill="#895f4c"/><path d="M1482-214l24 154 270-143-294-11z" fill="#88554b"/><path d="M1747 661l-175 247 207-68-32-179z" fill="#9e975c"/><path d="M1572 908l121 139 86-207-207 68z" fill="#98b861"/><path d="M1494 650l78 258 175-247-253-11z" fill="#9f7557"/><path d="M1567 360l147-18 8-183-155 201z" fill="#aeb974"/><path d="M1541 526l-47 124 253 11-206-135z" fill="#a36c59"/><path d="M1490 179l77 181 155-201-232 20z" fill="#a99a6a"/><path d="M1714 342l-147 18 167 85-20-103z" fill="#b3bd77"/><path d="M1567 360l-26 166 193-81-167-85z" fill="#b1a16d"/><path d="M1542 1075l120 129 31-157-151 28z" fill="#8a9656"/><path d="M1653-1l-163 180 232-20-69-160z" fill="#98795a"/><path d="M1572 908l-30 167 151-28-121-139z" fill="#95b25f"/><path d="M1506-60l-16 239L1653-1l-147-59z" fill="#8c564d"/><path d="M1542 1075l-33 106 153 23-120-129z" fill="#867d50"/><path d="M1383 104l107 75 16-239-123 164z" fill="#91514f"/><path d="M1490 179l-167 96 244 85-77-181z" fill="#b0906c"/><path d="M1403 530l138-4 26-166-164 170z" fill="#af8567"/><path d="M1494 650l-111 180 189 78-78-258z" fill="#9f7156"/><path d="M1423 1031l119 44 30-167-149 123z" fill="#98a55d"/><path d="M1383 830l40 201 149-123-189-78z" fill="#9e915b"/><path d="M1323 275l80 255 164-170-244-85z" fill="#b6926f"/><path d="M1482-214l-70 145 94 9-24-154z" fill="#873f47"/><path d="M1412-69l-29 173 123-164-94-9z" fill="#863846"/><path d="M1403 530l91 120 47-124-138 4z" fill="#a6635a"/><path d="M1423 1031l86 150 33-106-119-44z" fill="#8f8353"/><path d="M276 1226l-236 56 724-8-488-48z" fill="#714041"/><path d="M1300 642l83 188 111-180-194-8z" fill="#9c434f"/><path d="M1423 1031l-117 150h203l-86-150z" fill="#8b6a4d"/><path d="M1403 530l-103 112 194 8-91-120z" fill="#a14853"/><path d="M1359-261l53 192 70-145-123-47z" fill="#863546"/><path d="M1383 104l-60 171 167-96-107-75z" fill="#a26a5e"/><path d="M1323 275l-110 98 190 157-80-255z" fill="#b67b6a"/><path d="M1213 373l19 172 171-15-190-157z" fill="#ac595e"/><path d="M1359-261l-196 55 249 137-53-192z" fill="#831942"/><path d="M1173 79l210 25 29-173-239 148z" fill="#872746"/><path d="M1242 1049l64 132 117-150-181 18z" fill="#916a50"/><path d="M1383 830l-147 79 187 122-40-201z" fill="#9f7e58"/><path d="M1236 909l6 140 181-18-187-122z" fill="#9d8459"/><path d="M1163-206l-20 229 269-92-249-137z" fill="#841442"/><path d="M1143 23l30 56 239-148-269 92z" fill="#831342"/><path class="st105" d="M1057-285l106 79 196-55-302-24z"/><path d="M1232 545l68 97 103-112-171 15z" fill="#a34154"/><path d="M1173 79l150 196 60-171-210-25z" fill="#9c4b55"/><path d="M1300 642l-64 267 147-79-83-188z" fill="#9d4f50"/><path d="M1231 623l5 286 64-267-69-19z" fill="#9a314d"/><path d="M1232 545l-1 78 69 19-68-97z" fill="#9f2e50"/><path d="M1242 1049l-5 147 69-15-64-132z" fill="#884f49"/><path d="M1173 79l40 294 110-98-150-196z" fill="#ad6b64"/><path d="M1231 623l-224 73 229 213-5-286z" fill="#a24d55"/><path d="M1173 79L998 204l215 169-40-294z" fill="#af7768"/><path d="M998 204l-18 66 233 103-215-169z" fill="#bc9777"/><path d="M1213 373l-273 73 292 99-19-172z" fill="#b87b6c"/><path d="M1007 696l-44 132 273 81-229-213z" fill="#a9735f"/><path d="M1236 909l-221 161 227-21-6-140z" fill="#a08d5d"/><path d="M1066 1189l171 7 5-147-176 140z" fill="#8d5c4e"/><path d="M1015 1070l51 119 176-140-227 21z" fill="#977858"/><path d="M963 828l52 242 221-161-273-81z" fill="#a89764"/><path d="M1007 696l224-73 1-78-225 151z" fill="#a43e55"/><path d="M940 446l67 250 225-151-292-99z" fill="#b16663"/><path d="M980 270l-40 176 273-73-233-103z" fill="#c3a67e"/><path d="M981 24l162-1 20-229L981 24z" fill="#8e394d"/><path d="M1057-285L981 24l182-230-106-79z" fill="#903f4f"/><path d="M1143 23l-162 1 192 55-30-56z" fill="#934251"/><path d="M981 24l17 180 175-125-192-55z" fill="#a05f5d"/><path d="M940 446L807 625l200 71-67-250z" fill="#b7786b"/><path d="M963 828L845 987l170 83-52-242z" fill="#acb56f"/><path d="M823-53l158 77 76-309L823-53z" fill="#975557"/><path d="M813-273l10 220 234-232-244 12z" fill="#9a5f5b"/><path d="M1015 1070l-251 204 302-85-51-119z" fill="#937a5b"/><path d="M823 898l22 89 118-159-140 70z" fill="#b0b071"/><path d="M870 292l70 154 40-176-110 22z" fill="#cac289"/><path d="M981 24L827 140l171 64-17-180z" fill="#aa7b68"/><path d="M845 987l-81 287 251-204-170-83z" fill="#9f9d68"/><path d="M807 625l156 203 44-132-200-71z" fill="#b07164"/><path d="M867 436l-60 189 133-179-73-10z" fill="#c19b79"/><path d="M870 292l-3 144 73 10-70-154z" fill="#c8b885"/><path d="M870 292l110-22 18-66-128 88z" fill="#bda47b"/><path d="M827 140l43 152 128-88-171-64z" fill="#b99e78"/><path d="M823-53l4 193L981 24 823-53z" fill="#9f6a60"/><path d="M807 625l16 273 140-70-156-203z" fill="#b3906c"/><path d="M658 1216l-382 10 488 48-106-58z" fill="#876d56"/><path d="M807 625l-114 73 130 200-16-273z" fill="#b89371"/><path d="M-65-225l404 58 280-118-684 60z" fill="#792842"/><path d="M693 698l-6 130 136 70-130-200z" fill="#b9ae77"/><path d="M658 1216l106 58 81-287-187 229z" fill="#9da26b"/><path d="M645 467l162 158 60-189-222 31z" fill="#c5aa7f"/><path d="M827 140l-156 38 199 114-43-152z" fill="#bdaf80"/><path d="M671 178l8 203 191-89-199-114z" fill="#c9d38f"/><path d="M679 381l188 55 3-144-191 89z" fill="#cdcf8f"/><path d="M578 988l80 228 187-229-267 1z" fill="#a5c074"/><path d="M679 381l-34 86 222-31-188-55z" fill="#cccb8d"/><path d="M574-32l97 210L823-53 574-32z" fill="#a27b67"/><path d="M813-273l-194-12L823-53l-10-220z" fill="#a27966"/><path d="M619-285L574-32l249-21-204-232z" fill="#9e7262"/><path d="M823-53L671 178l156-38-4-193z" fill="#ac8d6f"/><path d="M823 898l-245 90 267-1-22-89z" fill="#b1d77d"/><path d="M687 828L578 988l245-90-136-70z" fill="#b2c479"/><path d="M645 467l48 231 114-73-162-158z" fill="#bf9577"/><path d="M477 1154l-201 72 382-10-181-62z" fill="#846952"/><path class="st164" d="M-65-225l135 60 269-2-404-58z"/><path d="M578 988l-101 166 181 62-80-228z" fill="#969563"/><path d="M574-32L511 7l160 171-97-210z" fill="#9b6d60"/><path d="M511 7l-49 116 209 55L511 7z" fill="#a07664"/><path d="M671 178L410 324l269 57-8-203z" fill="#bfbc85"/><path d="M493 810l85 178 109-160-194-18z" fill="#aba66d"/><path d="M486 739l7 71 194 18-201-89z" fill="#aa8967"/><path d="M645 467l-122-1 170 232-48-231z" fill="#ba9275"/><path d="M523 466l-37 273 207-41-170-232z" fill="#ad6c65"/><path d="M486 739l201 89 6-130-207 41z" fill="#b08b6b"/><path d="M462 123l-52 201 261-146-209-55z" fill="#ad9271"/><path d="M410 324l113 142 156-85-269-57z" fill="#beb180"/><path d="M400-161L574-32l45-253-219 124z" fill="#915756"/><path d="M523 466l122 1 34-86-156 85z" fill="#c2b281"/><path class="st178" d="M339-167l61 6 219-124-280 118z"/><path d="M321 471l165 268 37-273-202 5z" fill="#a86c63"/><path d="M400-161L511 7l63-39-174-129z" fill="#8d5053"/><path d="M493 810l-95 206 180-28-85-178z" fill="#a1a569"/><path d="M398 1016l79 138 101-166-180 28z" fill="#979b63"/><path d="M321 471l-36 241 201 27-165-268z" fill="#974152"/><path d="M304 875l94 141 95-206-189 65z" fill="#9b895f"/><path d="M400-161L302-42 511 7 400-161z" fill="#843e4b"/><path d="M410 324l-89 147 202-5-113-142z" fill="#b29172"/><path class="st178" d="M302-42l160 165L511 7 302-42z"/><path d="M302-42l-17 148 177 17L302-42z" fill="#86434d"/><path d="M285 712l19 163 182-136-201-27z" fill="#985e55"/><path d="M486 739L304 875l189-65-7-71z" fill="#9e755d"/><path d="M285 106l125 218 52-201-177-17z" fill="#9e7162"/><path d="M398 1016l-122 210 201-72-79-138z" fill="#866e52"/><path d="M237 1062l39 164 122-210-161 46z" fill="#836a4e"/><path d="M339-167L302-42l98-119-61-6z" fill="#7e3346"/><path d="M233 360l88 111 89-147-177 36z" fill="#ab886d"/><path d="M285 106l-52 254 177-36-125-218z" fill="#a37c67"/><path d="M304 875l-67 187 161-46-94-141z" fill="#92915c"/><path d="M161 324l72 36 52-254-124 218z" fill="#9b6c60"/><path d="M65 627l220 85 36-241L65 627z" fill="#8c304a"/><path d="M147-88l155 46 37-125-192 79z" fill="#751f3f"/><path class="st164" d="M70-165l77 77 192-79-269 2z"/><path d="M99 116l62 208 124-218-186 10z" fill="#8a4b51"/><path d="M96 1020l141 42 67-187-208 145z" fill="#8a7f53"/><path d="M285 712L54 832l250 43-19-163z" fill="#8a4c4a"/><path d="M233 360L55 458l266 13-88-111z" fill="#9d645d"/><path class="st204" d="M55 458l10 169 256-156-266-13z"/><path d="M147-88L99 116l186-10L147-88z" fill="#731a3d"/><path d="M147-88l138 194 17-148-155-46z" fill="#731b3d"/><path d="M54 832l42 188 208-145-250-43z" fill="#89654d"/><path d="M237 1062L40 1282l236-56-39-164z" fill="#6c383b"/><path d="M65 627L54 832l231-120-220-85z" fill="#842a44"/><path d="M96 1020l-56 262 197-220-141-42z" fill="#764f43"/><path d="M161 324L55 458l178-98-72-36z" fill="#a07062"/><path d="M-15 21l114 95 48-204L-15 21z" fill="#6e0939"/><path d="M99 116l-218 144 280 64-62-208z" fill="#935c58"/><path d="M-119 260L55 458l106-134-280-64z" fill="#a27a67"/><path d="M55 458l-77 92 87 77-10-169z" fill="#8f3d4f"/><path d="M-121 1075l161 207 56-262-217 55z" fill="#754d42"/><path class="st164" d="M70-165L-15 21 147-88l-77-77z"/><path d="M-121 1075l41 207H40l-161-207z" fill="#683039"/><path d="M-89 667L54 832l11-205-154 40z" fill="#842443"/><path d="M54 832l-179 20 221 168-42-188z" fill="#89634d"/><path d="M-125 852l4 223 217-55-221-168z" fill="#887a51"/><path d="M-15 21l-104 122 218-27-114-95z" fill="#7b2d44"/><path d="M-119 143v117L99 116l-218 27z" fill="#894850"/><path d="M-89 667l-36 185 179-20-143-165z" fill="#874047"/><path class="st164" d="M-65-225l50 246 85-186-135-60z"/><path d="M-22 550l-67 117 154-40-87-77z" fill="#872346"/><path d="M-119 260l-129 121 226 169-97-290z" fill="#9e6c61"/><path d="M-119 260l97 290 77-92-174-198z" fill="#9c645d"/><path d="M-248 381l9 132 217 37-226-169z" fill="#965156"/><path class="st164" d="M-65-225L-221-1l206 22-50-246z"/><path d="M-221-1l102 144L-15 21-221-1z" fill="#751e3e"/><path d="M-239 513l150 154 67-117-217-37z" fill="#8c324b"/><path d="M-125 852l-171 178 175 45-4-223z" fill="#887b51"/><path d="M-295 666l170 186 36-185-206-1z" fill="#842c44"/><path d="M-121 1075l-134 160 175 47-41-207z" fill="#6b363b"/><path class="st164" d="M-288-183l67 182 156-224-223 42z"/><path class="st105" d="M-239 513l-56 153 206 1-150-154z"/><path d="M-295 666l-27 190 197-4-170-186z" fill="#874248"/><path d="M-322 856l26 174 171-178-197 4z" fill="#89664e"/><path d="M-296 1030l41 205 134-160-175-45z" fill="#775144"/><path d="M-221-1l-53 198 155-54L-221-1z" fill="#7f3447"/><path d="M-119 143l-155 54 155 63V143z" fill="#8e5154"/><path d="M-274 197l26 184 129-121-155-63z" fill="#9a6a5f"/><path class="st164" d="M-288-183l14 380 53-198-67-182z"/><path class="st204" d="M-248 381l-47 285 56-153-9-132z"/><path d="M-274 197l-21 469 47-285-26-184z" fill="#9d665e"/><path d="M-288-183l-34 1039 48-659-14-380z" fill="#9c6e61"/><path d="M-322 856l27-190 21-469-48 659z" fill="#8c334b"/></svg>