<?xml version="1.0" encoding="UTF-8" standalone="no"?>
<!DOCTYPE svg PUBLIC "-//W3C//DTD SVG 1.1//EN"
 "http://www.w3.org/Graphics/SVG/1.1/DTD/svg11.dtd">
<!-- Generated by graphviz version 2.38.0 (20140413.2041)
 -->
<!-- Title: controllers_diagram Pages: 1 -->
<svg width="804pt" height="761pt"
 viewBox="0.00 0.00 803.82 761.00" xmlns="http://www.w3.org/2000/svg" xmlns:xlink="http://www.w3.org/1999/xlink">
<g id="graph0" class="graph" transform="scale(1 1) rotate(0) translate(364.104 469.5)">
<title>controllers_diagram</title>
<polygon fill="white" stroke="none" points="-364.104,291.5 -364.104,-469.5 439.714,-469.5 439.714,291.5 -364.104,291.5"/>
<!-- _diagram_info -->
<g id="node1" class="node"><title>_diagram_info</title>
<text text-anchor="start" x="8.31226" y="174.9" font-family="Times,serif" font-size="13.00">Controllers diagram</text>
<text text-anchor="start" x="8.31226" y="187.9" font-family="Times,serif" font-size="13.00">Date: Mar 07 2015 &#45; 21:41</text>
<text text-anchor="start" x="8.31226" y="200.9" font-family="Times,serif" font-size="13.00">Migration version: 20150305005920</text>
<text text-anchor="start" x="8.31226" y="213.9" font-family="Times,serif" font-size="13.00">Generated by RailRoady 1.3.0</text>
<text text-anchor="start" x="8.31226" y="226.9" font-family="Times,serif" font-size="13.00">http://railroady.prestonlee.com</text>
</g>
<!-- AlertsController -->
<g id="node2" class="node"><title>AlertsController</title>
<path fill="none" stroke="black" d="M299.559,287C299.559,287 386.441,287 386.441,287 392.441,287 398.441,281 398.441,275 398.441,275 398.441,83 398.441,83 398.441,77 392.441,71 386.441,71 386.441,71 299.559,71 299.559,71 293.559,71 287.559,77 287.559,83 287.559,83 287.559,275 287.559,275 287.559,281 293.559,287 299.559,287"/>
<text text-anchor="middle" x="343" y="86.2" font-family="Times,serif" font-size="14.00">AlertsController</text>
<polyline fill="none" stroke="black" points="287.559,93 398.441,93 "/>
<text text-anchor="start" x="295.559" y="108.2" font-family="Times,serif" font-size="14.00">create</text>
<text text-anchor="start" x="295.559" y="122.2" font-family="Times,serif" font-size="14.00">destroy</text>
<text text-anchor="start" x="295.559" y="136.2" font-family="Times,serif" font-size="14.00">edit</text>
<text text-anchor="start" x="295.559" y="150.2" font-family="Times,serif" font-size="14.00">index</text>
<text text-anchor="start" x="295.559" y="164.2" font-family="Times,serif" font-size="14.00">new</text>
<text text-anchor="start" x="295.559" y="178.2" font-family="Times,serif" font-size="14.00">show</text>
<text text-anchor="start" x="295.559" y="192.2" font-family="Times,serif" font-size="14.00">update</text>
<polyline fill="none" stroke="black" points="287.559,199 398.441,199 "/>
<polyline fill="none" stroke="black" points="287.559,223 398.441,223 "/>
<text text-anchor="start" x="295.559" y="238.2" font-family="Times,serif" font-size="14.00">_layout</text>
<text text-anchor="start" x="295.559" y="252.2" font-family="Times,serif" font-size="14.00">alert_params</text>
<text text-anchor="start" x="295.559" y="266.2" font-family="Times,serif" font-size="14.00">if_not_signed_in</text>
<text text-anchor="start" x="295.559" y="280.2" font-family="Times,serif" font-size="14.00">set_alert</text>
</g>
<!-- AlliesController -->
<g id="node3" class="node"><title>AlliesController</title>
<path fill="none" stroke="black" d="M335.559,-109C335.559,-109 422.441,-109 422.441,-109 428.441,-109 434.441,-115 434.441,-121 434.441,-121 434.441,-229 434.441,-229 434.441,-235 428.441,-241 422.441,-241 422.441,-241 335.559,-241 335.559,-241 329.559,-241 323.559,-235 323.559,-229 323.559,-229 323.559,-121 323.559,-121 323.559,-115 329.559,-109 335.559,-109"/>
<text text-anchor="middle" x="379" y="-225.8" font-family="Times,serif" font-size="14.00">AlliesController</text>
<polyline fill="none" stroke="black" points="323.559,-219 434.441,-219 "/>
<text text-anchor="start" x="331.559" y="-203.8" font-family="Times,serif" font-size="14.00">add</text>
<text text-anchor="start" x="331.559" y="-189.8" font-family="Times,serif" font-size="14.00">index</text>
<text text-anchor="start" x="331.559" y="-175.8" font-family="Times,serif" font-size="14.00">remove</text>
<polyline fill="none" stroke="black" points="323.559,-169 434.441,-169 "/>
<polyline fill="none" stroke="black" points="323.559,-145 434.441,-145 "/>
<text text-anchor="start" x="331.559" y="-129.8" font-family="Times,serif" font-size="14.00">_layout</text>
<text text-anchor="start" x="331.559" y="-115.8" font-family="Times,serif" font-size="14.00">if_not_signed_in</text>
</g>
<!-- ApplicationController -->
<g id="node4" class="node"><title>ApplicationController</title>
<path fill="none" stroke="black" d="M-95.9658,107C-95.9658,107 77.9658,107 77.9658,107 83.9658,107 89.9658,101 89.9658,95 89.9658,95 89.9658,-97 89.9658,-97 89.9658,-103 83.9658,-109 77.9658,-109 77.9658,-109 -95.9658,-109 -95.9658,-109 -101.966,-109 -107.966,-103 -107.966,-97 -107.966,-97 -107.966,95 -107.966,95 -107.966,101 -101.966,107 -95.9658,107"/>
<text text-anchor="middle" x="-9" y="-93.8" font-family="Times,serif" font-size="14.00">ApplicationController</text>
<polyline fill="none" stroke="black" points="-107.966,-87 89.9658,-87 "/>
<polyline fill="none" stroke="black" points="-107.966,-63 89.9658,-63 "/>
<text text-anchor="start" x="-99.9658" y="-47.8" font-family="Times,serif" font-size="14.00">are_allies</text>
<text text-anchor="start" x="-99.9658" y="-33.8" font-family="Times,serif" font-size="14.00">are_pending_allies</text>
<text text-anchor="start" x="-99.9658" y="-19.8" font-family="Times,serif" font-size="14.00">configure_permitted_parameters</text>
<text text-anchor="start" x="-99.9658" y="-5.8" font-family="Times,serif" font-size="14.00">fetch_profile_picture</text>
<text text-anchor="start" x="-99.9658" y="8.2" font-family="Times,serif" font-size="14.00">fetch_supporters</text>
<text text-anchor="start" x="-99.9658" y="22.2" font-family="Times,serif" font-size="14.00">fetch_taxonomies</text>
<text text-anchor="start" x="-99.9658" y="36.2" font-family="Times,serif" font-size="14.00">get_accepted_allies</text>
<text text-anchor="start" x="-99.9658" y="50.2" font-family="Times,serif" font-size="14.00">get_incoming_ally_requests</text>
<text text-anchor="start" x="-99.9658" y="64.2" font-family="Times,serif" font-size="14.00">get_outgoing_ally_requests</text>
<text text-anchor="start" x="-99.9658" y="78.2" font-family="Times,serif" font-size="14.00">user_relation</text>
<polyline fill="none" stroke="black" points="-107.966,85 89.9658,85 "/>
<text text-anchor="start" x="-99.9658" y="100.2" font-family="Times,serif" font-size="14.00">_layout</text>
</g>
<!-- CategoriesController -->
<g id="node5" class="node"><title>CategoriesController</title>
<path fill="none" stroke="black" d="M174.293,-163C174.293,-163 283.707,-163 283.707,-163 289.707,-163 295.707,-169 295.707,-175 295.707,-175 295.707,-381 295.707,-381 295.707,-387 289.707,-393 283.707,-393 283.707,-393 174.293,-393 174.293,-393 168.293,-393 162.293,-387 162.293,-381 162.293,-381 162.293,-175 162.293,-175 162.293,-169 168.293,-163 174.293,-163"/>
<text text-anchor="middle" x="229" y="-377.8" font-family="Times,serif" font-size="14.00">CategoriesController</text>
<polyline fill="none" stroke="black" points="162.293,-371 295.707,-371 "/>
<text text-anchor="start" x="170.293" y="-355.8" font-family="Times,serif" font-size="14.00">create</text>
<text text-anchor="start" x="170.293" y="-341.8" font-family="Times,serif" font-size="14.00">destroy</text>
<text text-anchor="start" x="170.293" y="-327.8" font-family="Times,serif" font-size="14.00">edit</text>
<text text-anchor="start" x="170.293" y="-313.8" font-family="Times,serif" font-size="14.00">index</text>
<text text-anchor="start" x="170.293" y="-299.8" font-family="Times,serif" font-size="14.00">new</text>
<text text-anchor="start" x="170.293" y="-285.8" font-family="Times,serif" font-size="14.00">show</text>
<text text-anchor="start" x="170.293" y="-271.8" font-family="Times,serif" font-size="14.00">update</text>
<polyline fill="none" stroke="black" points="162.293,-265 295.707,-265 "/>
<polyline fill="none" stroke="black" points="162.293,-241 295.707,-241 "/>
<text text-anchor="start" x="170.293" y="-225.8" font-family="Times,serif" font-size="14.00">_layout</text>
<text text-anchor="start" x="170.293" y="-211.8" font-family="Times,serif" font-size="14.00">category_params</text>
<text text-anchor="start" x="170.293" y="-197.8" font-family="Times,serif" font-size="14.00">if_not_signed_in</text>
<text text-anchor="start" x="170.293" y="-183.8" font-family="Times,serif" font-size="14.00">is_viewer</text>
<text text-anchor="start" x="170.293" y="-169.8" font-family="Times,serif" font-size="14.00">set_category</text>
</g>
<!-- MedicationsController -->
<g id="node6" class="node"><title>MedicationsController</title>
<path fill="none" stroke="black" d="M-204.376,-217C-204.376,-217 -85.624,-217 -85.624,-217 -79.624,-217 -73.624,-223 -73.624,-229 -73.624,-229 -73.624,-421 -73.624,-421 -73.624,-427 -79.624,-433 -85.624,-433 -85.624,-433 -204.376,-433 -204.376,-433 -210.376,-433 -216.376,-427 -216.376,-421 -216.376,-421 -216.376,-229 -216.376,-229 -216.376,-223 -210.376,-217 -204.376,-217"/>
<text text-anchor="middle" x="-145" y="-417.8" font-family="Times,serif" font-size="14.00">MedicationsController</text>
<polyline fill="none" stroke="black" points="-216.376,-411 -73.624,-411 "/>
<text text-anchor="start" x="-208.376" y="-395.8" font-family="Times,serif" font-size="14.00">create</text>
<text text-anchor="start" x="-208.376" y="-381.8" font-family="Times,serif" font-size="14.00">destroy</text>
<text text-anchor="start" x="-208.376" y="-367.8" font-family="Times,serif" font-size="14.00">edit</text>
<text text-anchor="start" x="-208.376" y="-353.8" font-family="Times,serif" font-size="14.00">index</text>
<text text-anchor="start" x="-208.376" y="-339.8" font-family="Times,serif" font-size="14.00">new</text>
<text text-anchor="start" x="-208.376" y="-325.8" font-family="Times,serif" font-size="14.00">show</text>
<text text-anchor="start" x="-208.376" y="-311.8" font-family="Times,serif" font-size="14.00">update</text>
<polyline fill="none" stroke="black" points="-216.376,-305 -73.624,-305 "/>
<polyline fill="none" stroke="black" points="-216.376,-281 -73.624,-281 "/>
<text text-anchor="start" x="-208.376" y="-265.8" font-family="Times,serif" font-size="14.00">_layout</text>
<text text-anchor="start" x="-208.376" y="-251.8" font-family="Times,serif" font-size="14.00">if_not_signed_in</text>
<text text-anchor="start" x="-208.376" y="-237.8" font-family="Times,serif" font-size="14.00">medication_params</text>
<text text-anchor="start" x="-208.376" y="-223.8" font-family="Times,serif" font-size="14.00">set_medication</text>
</g>
<!-- MoodsController -->
<g id="node7" class="node"><title>MoodsController</title>
<path fill="none" stroke="black" d="M-240.221,53C-240.221,53 -151.779,53 -151.779,53 -145.779,53 -139.779,47 -139.779,41 -139.779,41 -139.779,-165 -139.779,-165 -139.779,-171 -145.779,-177 -151.779,-177 -151.779,-177 -240.221,-177 -240.221,-177 -246.221,-177 -252.221,-171 -252.221,-165 -252.221,-165 -252.221,41 -252.221,41 -252.221,47 -246.221,53 -240.221,53"/>
<text text-anchor="middle" x="-196" y="-161.8" font-family="Times,serif" font-size="14.00">MoodsController</text>
<polyline fill="none" stroke="black" points="-252.221,-155 -139.779,-155 "/>
<text text-anchor="start" x="-244.221" y="-139.8" font-family="Times,serif" font-size="14.00">create</text>
<text text-anchor="start" x="-244.221" y="-125.8" font-family="Times,serif" font-size="14.00">destroy</text>
<text text-anchor="start" x="-244.221" y="-111.8" font-family="Times,serif" font-size="14.00">edit</text>
<text text-anchor="start" x="-244.221" y="-97.8" font-family="Times,serif" font-size="14.00">index</text>
<text text-anchor="start" x="-244.221" y="-83.8" font-family="Times,serif" font-size="14.00">new</text>
<text text-anchor="start" x="-244.221" y="-69.8" font-family="Times,serif" font-size="14.00">show</text>
<text text-anchor="start" x="-244.221" y="-55.8" font-family="Times,serif" font-size="14.00">update</text>
<polyline fill="none" stroke="black" points="-252.221,-49 -139.779,-49 "/>
<polyline fill="none" stroke="black" points="-252.221,-25 -139.779,-25 "/>
<text text-anchor="start" x="-244.221" y="-9.8" font-family="Times,serif" font-size="14.00">_layout</text>
<text text-anchor="start" x="-244.221" y="4.2" font-family="Times,serif" font-size="14.00">if_not_signed_in</text>
<text text-anchor="start" x="-244.221" y="18.2" font-family="Times,serif" font-size="14.00">is_viewer</text>
<text text-anchor="start" x="-244.221" y="32.2" font-family="Times,serif" font-size="14.00">mood_params</text>
<text text-anchor="start" x="-244.221" y="46.2" font-family="Times,serif" font-size="14.00">set_mood</text>
</g>
<!-- OmniauthCallbacksController -->
<g id="node8" class="node"><title>OmniauthCallbacksController</title>
<path fill="none" stroke="black" d="M-222.373,233C-222.373,233 -61.6274,233 -61.6274,233 -55.6274,233 -49.6274,227 -49.6274,221 -49.6274,221 -49.6274,155 -49.6274,155 -49.6274,149 -55.6274,143 -61.6274,143 -61.6274,143 -222.373,143 -222.373,143 -228.373,143 -234.373,149 -234.373,155 -234.373,155 -234.373,221 -234.373,221 -234.373,227 -228.373,233 -222.373,233"/>
<text text-anchor="middle" x="-142" y="158.2" font-family="Times,serif" font-size="14.00">OmniauthCallbacksController</text>
<polyline fill="none" stroke="black" points="-234.373,165 -49.6274,165 "/>
<text text-anchor="start" x="-226.373" y="180.2" font-family="Times,serif" font-size="14.00">google_oauth2</text>
<polyline fill="none" stroke="black" points="-234.373,187 -49.6274,187 "/>
<polyline fill="none" stroke="black" points="-234.373,211 -49.6274,211 "/>
<text text-anchor="start" x="-226.373" y="226.2" font-family="Times,serif" font-size="14.00">_layout</text>
</g>
<!-- PagesController -->
<g id="node9" class="node"><title>PagesController</title>
<path fill="none" stroke="black" d="M-348.104,-217C-348.104,-217 -265.896,-217 -265.896,-217 -259.896,-217 -253.896,-223 -253.896,-229 -253.896,-229 -253.896,-309 -253.896,-309 -253.896,-315 -259.896,-321 -265.896,-321 -265.896,-321 -348.104,-321 -348.104,-321 -354.104,-321 -360.104,-315 -360.104,-309 -360.104,-309 -360.104,-229 -360.104,-229 -360.104,-223 -354.104,-217 -348.104,-217"/>
<text text-anchor="middle" x="-307" y="-305.8" font-family="Times,serif" font-size="14.00">PagesController</text>
<polyline fill="none" stroke="black" points="-360.104,-299 -253.896,-299 "/>
<text text-anchor="start" x="-352.104" y="-283.8" font-family="Times,serif" font-size="14.00">about</text>
<text text-anchor="start" x="-352.104" y="-269.8" font-family="Times,serif" font-size="14.00">home</text>
<polyline fill="none" stroke="black" points="-360.104,-263 -253.896,-263 "/>
<polyline fill="none" stroke="black" points="-360.104,-239 -253.896,-239 "/>
<text text-anchor="start" x="-352.104" y="-223.8" font-family="Times,serif" font-size="14.00">_layout</text>
</g>
<!-- ProfileController -->
<g id="node10" class="node"><title>ProfileController</title>
<path fill="none" stroke="black" d="M335.559,-271C335.559,-271 422.441,-271 422.441,-271 428.441,-271 434.441,-277 434.441,-283 434.441,-283 434.441,-363 434.441,-363 434.441,-369 428.441,-375 422.441,-375 422.441,-375 335.559,-375 335.559,-375 329.559,-375 323.559,-369 323.559,-363 323.559,-363 323.559,-283 323.559,-283 323.559,-277 329.559,-271 335.559,-271"/>
<text text-anchor="middle" x="379" y="-359.8" font-family="Times,serif" font-size="14.00">ProfileController</text>
<polyline fill="none" stroke="black" points="323.559,-353 434.441,-353 "/>
<text text-anchor="start" x="331.559" y="-337.8" font-family="Times,serif" font-size="14.00">index</text>
<polyline fill="none" stroke="black" points="323.559,-331 434.441,-331 "/>
<polyline fill="none" stroke="black" points="323.559,-307 434.441,-307 "/>
<text text-anchor="start" x="331.559" y="-291.8" font-family="Times,serif" font-size="14.00">_layout</text>
<text text-anchor="start" x="331.559" y="-277.8" font-family="Times,serif" font-size="14.00">if_not_signed_in</text>
</g>
<!-- RegistrationsController -->
<g id="node11" class="node"><title>RegistrationsController</title>
<path fill="none" stroke="black" d="M300.286,35C300.286,35 423.714,35 423.714,35 429.714,35 435.714,29 435.714,23 435.714,23 435.714,-57 435.714,-57 435.714,-63 429.714,-69 423.714,-69 423.714,-69 300.286,-69 300.286,-69 294.286,-69 288.286,-63 288.286,-57 288.286,-57 288.286,23 288.286,23 288.286,29 294.286,35 300.286,35"/>
<text text-anchor="middle" x="362" y="-53.8" font-family="Times,serif" font-size="14.00">RegistrationsController</text>
<polyline fill="none" stroke="black" points="288.286,-47 435.714,-47 "/>
<polyline fill="none" stroke="black" points="288.286,-23 435.714,-23 "/>
<text text-anchor="start" x="296.286" y="-7.8" font-family="Times,serif" font-size="14.00">after_update_path_for</text>
<text text-anchor="start" x="296.286" y="6.2" font-family="Times,serif" font-size="14.00">update_resource</text>
<polyline fill="none" stroke="black" points="288.286,13 435.714,13 "/>
<text text-anchor="start" x="296.286" y="28.2" font-family="Times,serif" font-size="14.00">_layout</text>
</g>
<!-- SearchController -->
<g id="node12" class="node"><title>SearchController</title>
<path fill="none" stroke="black" d="M-347.817,-361C-347.817,-361 -260.183,-361 -260.183,-361 -254.183,-361 -248.183,-367 -248.183,-373 -248.183,-373 -248.183,-453 -248.183,-453 -248.183,-459 -254.183,-465 -260.183,-465 -260.183,-465 -347.817,-465 -347.817,-465 -353.817,-465 -359.817,-459 -359.817,-453 -359.817,-453 -359.817,-373 -359.817,-373 -359.817,-367 -353.817,-361 -347.817,-361"/>
<text text-anchor="middle" x="-304" y="-449.8" font-family="Times,serif" font-size="14.00">SearchController</text>
<polyline fill="none" stroke="black" points="-359.817,-443 -248.183,-443 "/>
<text text-anchor="start" x="-351.817" y="-427.8" font-family="Times,serif" font-size="14.00">index</text>
<polyline fill="none" stroke="black" points="-359.817,-421 -248.183,-421 "/>
<polyline fill="none" stroke="black" points="-359.817,-397 -248.183,-397 "/>
<text text-anchor="start" x="-351.817" y="-381.8" font-family="Times,serif" font-size="14.00">_layout</text>
<text text-anchor="start" x="-351.817" y="-367.8" font-family="Times,serif" font-size="14.00">if_not_signed_in</text>
</g>
<!-- StrategiesController -->
<g id="node13" class="node"><title>StrategiesController</title>
<path fill="none" stroke="black" d="M137.624,125C137.624,125 242.376,125 242.376,125 248.376,125 254.376,119 254.376,113 254.376,113 254.376,-121 254.376,-121 254.376,-127 248.376,-133 242.376,-133 242.376,-133 137.624,-133 137.624,-133 131.624,-133 125.624,-127 125.624,-121 125.624,-121 125.624,113 125.624,113 125.624,119 131.624,125 137.624,125"/>
<text text-anchor="middle" x="190" y="-117.8" font-family="Times,serif" font-size="14.00">StrategiesController</text>
<polyline fill="none" stroke="black" points="125.624,-111 254.376,-111 "/>
<text text-anchor="start" x="133.624" y="-95.8" font-family="Times,serif" font-size="14.00">comment</text>
<text text-anchor="start" x="133.624" y="-81.8" font-family="Times,serif" font-size="14.00">create</text>
<text text-anchor="start" x="133.624" y="-67.8" font-family="Times,serif" font-size="14.00">destroy</text>
<text text-anchor="start" x="133.624" y="-53.8" font-family="Times,serif" font-size="14.00">edit</text>
<text text-anchor="start" x="133.624" y="-39.8" font-family="Times,serif" font-size="14.00">index</text>
<text text-anchor="start" x="133.624" y="-25.8" font-family="Times,serif" font-size="14.00">new</text>
<text text-anchor="start" x="133.624" y="-11.8" font-family="Times,serif" font-size="14.00">show</text>
<text text-anchor="start" x="133.624" y="2.2" font-family="Times,serif" font-size="14.00">support</text>
<text text-anchor="start" x="133.624" y="16.2" font-family="Times,serif" font-size="14.00">update</text>
<polyline fill="none" stroke="black" points="125.624,23 254.376,23 "/>
<polyline fill="none" stroke="black" points="125.624,47 254.376,47 "/>
<text text-anchor="start" x="133.624" y="62.2" font-family="Times,serif" font-size="14.00">_layout</text>
<text text-anchor="start" x="133.624" y="76.2" font-family="Times,serif" font-size="14.00">hide_page</text>
<text text-anchor="start" x="133.624" y="90.2" font-family="Times,serif" font-size="14.00">if_not_signed_in</text>
<text text-anchor="start" x="133.624" y="104.2" font-family="Times,serif" font-size="14.00">set_strategy</text>
<text text-anchor="start" x="133.624" y="118.2" font-family="Times,serif" font-size="14.00">strategy_params</text>
</g>
<!-- TriggersController -->
<g id="node14" class="node"><title>TriggersController</title>
<path fill="none" stroke="black" d="M-24.2437,-145C-24.2437,-145 72.2437,-145 72.2437,-145 78.2437,-145 84.2437,-151 84.2437,-157 84.2437,-157 84.2437,-391 84.2437,-391 84.2437,-397 78.2437,-403 72.2437,-403 72.2437,-403 -24.2437,-403 -24.2437,-403 -30.2437,-403 -36.2437,-397 -36.2437,-391 -36.2437,-391 -36.2437,-157 -36.2437,-157 -36.2437,-151 -30.2437,-145 -24.2437,-145"/>
<text text-anchor="middle" x="24" y="-387.8" font-family="Times,serif" font-size="14.00">TriggersController</text>
<polyline fill="none" stroke="black" points="-36.2437,-381 84.2437,-381 "/>
<text text-anchor="start" x="-28.2437" y="-365.8" font-family="Times,serif" font-size="14.00">comment</text>
<text text-anchor="start" x="-28.2437" y="-351.8" font-family="Times,serif" font-size="14.00">create</text>
<text text-anchor="start" x="-28.2437" y="-337.8" font-family="Times,serif" font-size="14.00">destroy</text>
<text text-anchor="start" x="-28.2437" y="-323.8" font-family="Times,serif" font-size="14.00">edit</text>
<text text-anchor="start" x="-28.2437" y="-309.8" font-family="Times,serif" font-size="14.00">index</text>
<text text-anchor="start" x="-28.2437" y="-295.8" font-family="Times,serif" font-size="14.00">new</text>
<text text-anchor="start" x="-28.2437" y="-281.8" font-family="Times,serif" font-size="14.00">show</text>
<text text-anchor="start" x="-28.2437" y="-267.8" font-family="Times,serif" font-size="14.00">support</text>
<text text-anchor="start" x="-28.2437" y="-253.8" font-family="Times,serif" font-size="14.00">update</text>
<polyline fill="none" stroke="black" points="-36.2437,-247 84.2437,-247 "/>
<polyline fill="none" stroke="black" points="-36.2437,-223 84.2437,-223 "/>
<text text-anchor="start" x="-28.2437" y="-207.8" font-family="Times,serif" font-size="14.00">_layout</text>
<text text-anchor="start" x="-28.2437" y="-193.8" font-family="Times,serif" font-size="14.00">hide_page</text>
<text text-anchor="start" x="-28.2437" y="-179.8" font-family="Times,serif" font-size="14.00">if_not_signed_in</text>
<text text-anchor="start" x="-28.2437" y="-165.8" font-family="Times,serif" font-size="14.00">set_trigger</text>
<text text-anchor="start" x="-28.2437" y="-151.8" font-family="Times,serif" font-size="14.00">trigger_params</text>
</g>
</g>
</svg>
