<svg width="1588pt" height="608" viewBox="0 0 1587.78 456" xmlns="http://www.w3.org/2000/svg"><g class="graph" transform="translate(4 452)"><path fill="#fff" d="M-4 4v-456h1587.78V4H-4z"/><g class="node"><text x="463.818" y="-433.6" font-family="Times,serif" font-size="13">Models diagram</text><text x="463.818" y="-420.6" font-family="Times,serif" font-size="13">Date: Mar 07 2015 - 22:06</text><text x="463.818" y="-407.6" font-family="Times,serif" font-size="13">Migration version: 20150303221447</text><text x="463.818" y="-394.6" font-family="Times,serif" font-size="13">Generated by RailRoady 1.3.0</text><text x="463.818" y="-381.6" font-family="Times,serif" font-size="13">http://railroady.prestonlee.com</text></g><g class="node"><path fill="none" stroke="#000" d="M12-63.5h109.011c6 0 12-6 12-12v-188c0-6-6-12-12-12H12c-6 0-12 6-12 12v188c0 6 6 12 12 12"/><text text-anchor="middle" x="66.505" y="-260.3" font-family="Times,serif" font-size="14">Alert</text><path fill="none" stroke="#000" d="M0-253.5h133.011"/><text x="8" y="-238.3" font-family="Times,serif" font-size="14">id :integer</text><text x="8" y="-224.3" font-family="Times,serif" font-size="14">user_id :integer</text><text x="8" y="-210.3" font-family="Times,serif" font-size="14">moment :integer</text><text x="8" y="-196.3" font-family="Times,serif" font-size="14">medication :integer</text><text x="8" y="-182.3" font-family="Times,serif" font-size="14">message :string</text><text x="8" y="-168.3" font-family="Times,serif" font-size="14">means :string</text><text x="8" y="-154.3" font-family="Times,serif" font-size="14">days :string</text><text x="8" y="-140.3" font-family="Times,serif" font-size="14">time_hour :string</text><text x="8" y="-126.3" font-family="Times,serif" font-size="14">created_at :datetime</text><text x="8" y="-112.3" font-family="Times,serif" font-size="14">updated_at :datetime</text><text x="8" y="-98.3" font-family="Times,serif" font-size="14">name :string</text><text x="8" y="-84.3" font-family="Times,serif" font-size="14">time_minute :string</text><text x="8" y="-70.3" font-family="Times,serif" font-size="14">time_period :string</text></g><g class="node"><path fill="none" stroke="#000" d="M163-112.5h109.011c6 0 12-6 12-12v-90c0-6-6-12-12-12H163c-6 0-12 6-12 12v90c0 6 6 12 12 12"/><text text-anchor="middle" x="217.505" y="-211.3" font-family="Times,serif" font-size="14">Ally</text><path fill="none" stroke="#000" d="M151-204.5h133.011"/><text x="159" y="-189.3" font-family="Times,serif" font-size="14">id :integer</text><text x="159" y="-175.3" font-family="Times,serif" font-size="14">user_id1 :integer</text><text x="159" y="-161.3" font-family="Times,serif" font-size="14">created_at :datetime</text><text x="159" y="-147.3" font-family="Times,serif" font-size="14">updated_at :datetime</text><text x="159" y="-133.3" font-family="Times,serif" font-size="14">user_id2 :integer</text><text x="159" y="-119.3" font-family="Times,serif" font-size="14">status :integer</text></g><g class="node"><path fill="none" stroke="#000" d="M314-112.5h109.011c6 0 12-6 12-12v-90c0-6-6-12-12-12H314c-6 0-12 6-12 12v90c0 6 6 12 12 12"/><text text-anchor="middle" x="368.505" y="-211.3" font-family="Times,serif" font-size="14">Category</text><path fill="none" stroke="#000" d="M302-204.5h133.011"/><text x="310" y="-189.3" font-family="Times,serif" font-size="14">id :integer</text><text x="310" y="-175.3" font-family="Times,serif" font-size="14">name :string</text><text x="310" y="-161.3" font-family="Times,serif" font-size="14">description :text</text><text x="310" y="-147.3" font-family="Times,serif" font-size="14">created_at :datetime</text><text x="310" y="-133.3" font-family="Times,serif" font-size="14">updated_at :datetime</text><text x="310" y="-119.3" font-family="Times,serif" font-size="14">user_id :integer</text></g><g class="node"><path fill="none" stroke="#000" d="M465.221-98.5H589.79c6 0 12-6 12-12v-118c0-6-6-12-12-12H465.221c-6 0-12 6-12 12v118c0 6 6 12 12 12"/><text text-anchor="middle" x="527.505" y="-225.3" font-family="Times,serif" font-size="14">Comment</text><path fill="none" stroke="#000" d="M453.221-218.5H601.79"/><text x="461.221" y="-203.3" font-family="Times,serif" font-size="14">id :integer</text><text x="461.221" y="-189.3" font-family="Times,serif" font-size="14">commentable_type :string</text><text x="461.221" y="-175.3" font-family="Times,serif" font-size="14">commentable_id :integer</text><text x="461.221" y="-161.3" font-family="Times,serif" font-size="14">comment_by :integer</text><text x="461.221" y="-147.3" font-family="Times,serif" font-size="14">comment :text</text><text x="461.221" y="-133.3" font-family="Times,serif" font-size="14">created_at :datetime</text><text x="461.221" y="-119.3" font-family="Times,serif" font-size="14">updated_at :datetime</text><text x="461.221" y="-105.3" font-family="Times,serif" font-size="14">visibility :string</text></g><g class="node"><path fill="none" stroke="#000" d="M632-70.5h109.011c6 0 12-6 12-12v-174c0-6-6-12-12-12H632c-6 0-12 6-12 12v174c0 6 6 12 12 12"/><text text-anchor="middle" x="686.505" y="-253.3" font-family="Times,serif" font-size="14">Medication</text><path fill="none" stroke="#000" d="M620-246.5h133.011"/><text x="628" y="-231.3" font-family="Times,serif" font-size="14">id :integer</text><text x="628" y="-217.3" font-family="Times,serif" font-size="14">name :string</text><text x="628" y="-203.3" font-family="Times,serif" font-size="14">dosage :integer</text><text x="628" y="-189.3" font-family="Times,serif" font-size="14">refill :string</text><text x="628" y="-175.3" font-family="Times,serif" font-size="14">created_at :datetime</text><text x="628" y="-161.3" font-family="Times,serif" font-size="14">updated_at :datetime</text><text x="628" y="-147.3" font-family="Times,serif" font-size="14">user_id :integer</text><text x="628" y="-133.3" font-family="Times,serif" font-size="14">total :integer</text><text x="628" y="-119.3" font-family="Times,serif" font-size="14">strength :integer</text><text x="628" y="-105.3" font-family="Times,serif" font-size="14">strength_unit :string</text><text x="628" y="-91.3" font-family="Times,serif" font-size="14">dosage_unit :string</text><text x="628" y="-77.3" font-family="Times,serif" font-size="14">total_unit :string</text></g><g class="node"><path fill="none" stroke="#000" d="M783-112.5h109.011c6 0 12-6 12-12v-90c0-6-6-12-12-12H783c-6 0-12 6-12 12v90c0 6 6 12 12 12"/><text text-anchor="middle" x="837.505" y="-211.3" font-family="Times,serif" font-size="14">Mood</text><path fill="none" stroke="#000" d="M771-204.5h133.011"/><text x="779" y="-189.3" font-family="Times,serif" font-size="14">id :integer</text><text x="779" y="-175.3" font-family="Times,serif" font-size="14">name :string</text><text x="779" y="-161.3" font-family="Times,serif" font-size="14">description :text</text><text x="779" y="-147.3" font-family="Times,serif" font-size="14">created_at :datetime</text><text x="779" y="-133.3" font-family="Times,serif" font-size="14">updated_at :datetime</text><text x="779" y="-119.3" font-family="Times,serif" font-size="14">user_id :integer</text></g><g class="node"><path fill="none" stroke="#000" d="M934-91.5h109.01c6 0 12-6 12-12v-132c0-6-6-12-12-12H934c-6 0-12 6-12 12v132c0 6 6 12 12 12"/><text text-anchor="middle" x="988.505" y="-232.3" font-family="Times,serif" font-size="14">Strategy</text><path fill="none" stroke="#000" d="M922-225.5h133.01"/><text x="930" y="-210.3" font-family="Times,serif" font-size="14">id :integer</text><text x="930" y="-196.3" font-family="Times,serif" font-size="14">user_id :integer</text><text x="930" y="-182.3" font-family="Times,serif" font-size="14">category :text</text><text x="930" y="-168.3" font-family="Times,serif" font-size="14">description :text</text><text x="930" y="-154.3" font-family="Times,serif" font-size="14">viewers :text</text><text x="930" y="-140.3" font-family="Times,serif" font-size="14">comment :boolean</text><text x="930" y="-126.3" font-family="Times,serif" font-size="14">created_at :datetime</text><text x="930" y="-112.3" font-family="Times,serif" font-size="14">updated_at :datetime</text><text x="930" y="-98.3" font-family="Times,serif" font-size="14">name :string</text></g><g class="node"><path fill="none" stroke="#000" d="M1085-112.5h109.01c6 0 12-6 12-12v-90c0-6-6-12-12-12H1085c-6 0-12 6-12 12v90c0 6 6 12 12 12"/><text text-anchor="middle" x="1139.51" y="-211.3" font-family="Times,serif" font-size="14">Support</text><path fill="none" stroke="#000" d="M1073-204.5h133.01"/><text x="1081" y="-189.3" font-family="Times,serif" font-size="14">id :integer</text><text x="1081" y="-175.3" font-family="Times,serif" font-size="14">user_id :integer</text><text x="1081" y="-161.3" font-family="Times,serif" font-size="14">support_type :string</text><text x="1081" y="-147.3" font-family="Times,serif" font-size="14">support_ids :text</text><text x="1081" y="-133.3" font-family="Times,serif" font-size="14">created_at :datetime</text><text x="1081" y="-119.3" font-family="Times,serif" font-size="14">updated_at :datetime</text></g><g class="node"><path fill="none" stroke="#000" d="M1236-70.5h109.01c6 0 12-6 12-12v-174c0-6-6-12-12-12H1236c-6 0-12 6-12 12v174c0 6 6 12 12 12"/><text text-anchor="middle" x="1290.51" y="-253.3" font-family="Times,serif" font-size="14">Moment</text><path fill="none" stroke="#000" d="M1224-246.5h133.01"/><text x="1232" y="-231.3" font-family="Times,serif" font-size="14">id :integer</text><text x="1232" y="-217.3" font-family="Times,serif" font-size="14">category :text</text><text x="1232" y="-203.3" font-family="Times,serif" font-size="14">name :string</text><text x="1232" y="-189.3" font-family="Times,serif" font-size="14">mood :string</text><text x="1232" y="-175.3" font-family="Times,serif" font-size="14">why :text</text><text x="1232" y="-161.3" font-family="Times,serif" font-size="14">fix :text</text><text x="1232" y="-147.3" font-family="Times,serif" font-size="14">created_at :datetime</text><text x="1232" y="-133.3" font-family="Times,serif" font-size="14">updated_at :datetime</text><text x="1232" y="-119.3" font-family="Times,serif" font-size="14">user_id :integer</text><text x="1232" y="-105.3" font-family="Times,serif" font-size="14">viewers :text</text><text x="1232" y="-91.3" font-family="Times,serif" font-size="14">comment :boolean</text><text x="1232" y="-77.3" font-family="Times,serif" font-size="14">strategies :text</text></g><g class="node"><path fill="none" stroke="#000" d="M1387.23-.5h180.55c6 0 12-6 12-12v-314c0-6-6-12-12-12h-180.55c-6 0-12 6-12 12v314c0 6 6 12 12 12"/><text text-anchor="middle" x="1477.51" y="-323.3" font-family="Times,serif" font-size="14">User</text><path fill="none" stroke="#000" d="M1375.23-316.5h204.55"/><text x="1383.23" y="-301.3" font-family="Times,serif" font-size="14">id :integer</text><text x="1383.23" y="-287.3" font-family="Times,serif" font-size="14">email :string</text><text x="1383.23" y="-273.3" font-family="Times,serif" font-size="14">encrypted_password :string</text><text x="1383.23" y="-259.3" font-family="Times,serif" font-size="14">reset_password_token :string</text><text x="1383.23" y="-245.3" font-family="Times,serif" font-size="14">reset_password_sent_at :datetime</text><text x="1383.23" y="-231.3" font-family="Times,serif" font-size="14">remember_created_at :datetime</text><text x="1383.23" y="-217.3" font-family="Times,serif" font-size="14">sign_in_count :integer</text><text x="1383.23" y="-203.3" font-family="Times,serif" font-size="14">current_sign_in_at :datetime</text><text x="1383.23" y="-189.3" font-family="Times,serif" font-size="14">last_sign_in_at :datetime</text><text x="1383.23" y="-175.3" font-family="Times,serif" font-size="14">current_sign_in_ip :string</text><text x="1383.23" y="-161.3" font-family="Times,serif" font-size="14">last_sign_in_ip :string</text><text x="1383.23" y="-147.3" font-family="Times,serif" font-size="14">created_at :datetime</text><text x="1383.23" y="-133.3" font-family="Times,serif" font-size="14">updated_at :datetime</text><text x="1383.23" y="-119.3" font-family="Times,serif" font-size="14">name :string</text><text x="1383.23" y="-105.3" font-family="Times,serif" font-size="14">location :string</text><text x="1383.23" y="-91.3" font-family="Times,serif" font-size="14">timezone :string</text><text x="1383.23" y="-77.3" font-family="Times,serif" font-size="14">about :text</text><text x="1383.23" y="-63.3" font-family="Times,serif" font-size="14">avatar :string</text><text x="1383.23" y="-49.3" font-family="Times,serif" font-size="14">conditions :text</text><text x="1383.23" y="-35.3" font-family="Times,serif" font-size="14">token :string</text><text x="1383.23" y="-21.3" font-family="Times,serif" font-size="14">uid :string</text><text x="1383.23" y="-7.3" font-family="Times,serif" font-size="14">provider :string</text></g><g class="node"><ellipse fill="none" stroke="#000" cx="762.505" cy="-411.5" rx="81.142" ry="18"/><text text-anchor="middle" x="762.505" y="-407.3" font-family="Times,serif" font-size="14">ActiveRecord::Base</text></g><g class="edge"><path fill="none" stroke="#000" d="M729.94-394.841c-16.768 7.332-37.772 15.409-57.435 19.841-115.376 26.006-434.049-31.74-531 36-22.048 15.405-37.702 38.843-48.784 63.382"/></g><g class="edge"><path fill="none" stroke="#000" d="M729.468-394.881c-16.711 7.227-37.524 15.225-56.963 19.881-82.489 19.757-311.124-13.508-380 36-36.4 26.165-55.418 74.106-65.179 112.18"/></g><g class="edge"><path fill="none" stroke="#000" d="M728.488-395.039c-16.594 7.011-37.023 14.87-55.983 20.039-98.976 26.983-146.445-26.235-228 36-35.588 27.158-54.958 74.753-65.218 112.447"/></g><g class="edge"><path fill="none" stroke="#000" d="M723.614-395.641c-39.166 15.554-96.152 39.987-113.109 56.641-27.569 27.077-47.4 65.191-60.748 98.322"/></g><g class="edge"><path fill="none" stroke="#000" d="M757.04-393.24l-39.432 124.522"/></g><g class="edge"><path fill="none" stroke="#000" d="M767.899-393.24l52.038 166.52"/></g><g class="edge"><path fill="none" stroke="#000" d="M811.701-397.062C844.144-386.04 885.637-367.53 913.505-339c24.613 25.196 41.921 59.85 53.658 91.182"/></g><g class="edge"><path fill="none" stroke="#000" d="M830.603-401.51c77.754 11.469 198.747 33.365 233.907 62.51 34.14 28.306 53.29 75.304 63.68 112.483"/></g><g class="edge"><path fill="none" stroke="#000" d="M841.645-406.977c113.908 6.54 316.685 24.125 373.865 67.977 22.99 17.636 39.1 43.861 50.32 70.398"/></g><g class="edge"><path fill="none" stroke="#000" d="M843.235-409.25c143.86 3.568 437.515 17.313 523.275 70.25a149.78 149.78 0 0 1 8.32 5.541"/></g></g></svg>