<?xml version="1.0" encoding="UTF-8" standalone="no"?>
<!DOCTYPE svg PUBLIC "-//W3C//DTD SVG 1.1//EN"
 "http://www.w3.org/Graphics/SVG/1.1/DTD/svg11.dtd">
<!-- Generated by graphviz version 2.38.0 (20140413.2041)
 -->
<!-- Title: models_diagram Pages: 1 -->
<svg width="1588pt" height="456pt"
 viewBox="0.00 0.00 1587.78 456.00" xmlns="http://www.w3.org/2000/svg" xmlns:xlink="http://www.w3.org/1999/xlink">
<g id="graph0" class="graph" transform="scale(1 1) rotate(0) translate(4 452)">
<title>models_diagram</title>
<polygon fill="white" stroke="none" points="-4,4 -4,-452 1583.78,-452 1583.78,4 -4,4"/>
<!-- _diagram_info -->
<g id="node1" class="node"><title>_diagram_info</title>
<text text-anchor="start" x="463.818" y="-433.6" font-family="Times,serif" font-size="13.00">Models diagram</text>
<text text-anchor="start" x="463.818" y="-420.6" font-family="Times,serif" font-size="13.00">Date: Mar 07 2015 &#45; 22:06</text>
<text text-anchor="start" x="463.818" y="-407.6" font-family="Times,serif" font-size="13.00">Migration version: 20150303221447</text>
<text text-anchor="start" x="463.818" y="-394.6" font-family="Times,serif" font-size="13.00">Generated by RailRoady 1.3.0</text>
<text text-anchor="start" x="463.818" y="-381.6" font-family="Times,serif" font-size="13.00">http://railroady.prestonlee.com</text>
</g>
<!-- Alert -->
<g id="node2" class="node"><title>Alert</title>
<path fill="none" stroke="black" d="M12,-63.5C12,-63.5 121.011,-63.5 121.011,-63.5 127.011,-63.5 133.011,-69.5 133.011,-75.5 133.011,-75.5 133.011,-263.5 133.011,-263.5 133.011,-269.5 127.011,-275.5 121.011,-275.5 121.011,-275.5 12,-275.5 12,-275.5 6,-275.5 0,-269.5 0,-263.5 0,-263.5 0,-75.5 0,-75.5 0,-69.5 6,-63.5 12,-63.5"/>
<text text-anchor="middle" x="66.5054" y="-260.3" font-family="Times,serif" font-size="14.00">Alert</text>
<polyline fill="none" stroke="black" points="0,-253.5 133.011,-253.5 "/>
<text text-anchor="start" x="8" y="-238.3" font-family="Times,serif" font-size="14.00">id :integer</text>
<text text-anchor="start" x="8" y="-224.3" font-family="Times,serif" font-size="14.00">userid :integer</text>
<text text-anchor="start" x="8" y="-210.3" font-family="Times,serif" font-size="14.00">moment :integer</text>
<text text-anchor="start" x="8" y="-196.3" font-family="Times,serif" font-size="14.00">medication :integer</text>
<text text-anchor="start" x="8" y="-182.3" font-family="Times,serif" font-size="14.00">message :string</text>
<text text-anchor="start" x="8" y="-168.3" font-family="Times,serif" font-size="14.00">means :string</text>
<text text-anchor="start" x="8" y="-154.3" font-family="Times,serif" font-size="14.00">days :string</text>
<text text-anchor="start" x="8" y="-140.3" font-family="Times,serif" font-size="14.00">time_hour :string</text>
<text text-anchor="start" x="8" y="-126.3" font-family="Times,serif" font-size="14.00">created_at :datetime</text>
<text text-anchor="start" x="8" y="-112.3" font-family="Times,serif" font-size="14.00">updated_at :datetime</text>
<text text-anchor="start" x="8" y="-98.3" font-family="Times,serif" font-size="14.00">name :string</text>
<text text-anchor="start" x="8" y="-84.3" font-family="Times,serif" font-size="14.00">time_minute :string</text>
<text text-anchor="start" x="8" y="-70.3" font-family="Times,serif" font-size="14.00">time_period :string</text>
</g>
<!-- Ally -->
<g id="node3" class="node"><title>Ally</title>
<path fill="none" stroke="black" d="M163,-112.5C163,-112.5 272.011,-112.5 272.011,-112.5 278.011,-112.5 284.011,-118.5 284.011,-124.5 284.011,-124.5 284.011,-214.5 284.011,-214.5 284.011,-220.5 278.011,-226.5 272.011,-226.5 272.011,-226.5 163,-226.5 163,-226.5 157,-226.5 151,-220.5 151,-214.5 151,-214.5 151,-124.5 151,-124.5 151,-118.5 157,-112.5 163,-112.5"/>
<text text-anchor="middle" x="217.505" y="-211.3" font-family="Times,serif" font-size="14.00">Ally</text>
<polyline fill="none" stroke="black" points="151,-204.5 284.011,-204.5 "/>
<text text-anchor="start" x="159" y="-189.3" font-family="Times,serif" font-size="14.00">id :integer</text>
<text text-anchor="start" x="159" y="-175.3" font-family="Times,serif" font-size="14.00">userid1 :integer</text>
<text text-anchor="start" x="159" y="-161.3" font-family="Times,serif" font-size="14.00">created_at :datetime</text>
<text text-anchor="start" x="159" y="-147.3" font-family="Times,serif" font-size="14.00">updated_at :datetime</text>
<text text-anchor="start" x="159" y="-133.3" font-family="Times,serif" font-size="14.00">userid2 :integer</text>
<text text-anchor="start" x="159" y="-119.3" font-family="Times,serif" font-size="14.00">status :integer</text>
</g>
<!-- Category -->
<g id="node4" class="node"><title>Category</title>
<path fill="none" stroke="black" d="M314,-112.5C314,-112.5 423.011,-112.5 423.011,-112.5 429.011,-112.5 435.011,-118.5 435.011,-124.5 435.011,-124.5 435.011,-214.5 435.011,-214.5 435.011,-220.5 429.011,-226.5 423.011,-226.5 423.011,-226.5 314,-226.5 314,-226.5 308,-226.5 302,-220.5 302,-214.5 302,-214.5 302,-124.5 302,-124.5 302,-118.5 308,-112.5 314,-112.5"/>
<text text-anchor="middle" x="368.505" y="-211.3" font-family="Times,serif" font-size="14.00">Category</text>
<polyline fill="none" stroke="black" points="302,-204.5 435.011,-204.5 "/>
<text text-anchor="start" x="310" y="-189.3" font-family="Times,serif" font-size="14.00">id :integer</text>
<text text-anchor="start" x="310" y="-175.3" font-family="Times,serif" font-size="14.00">name :string</text>
<text text-anchor="start" x="310" y="-161.3" font-family="Times,serif" font-size="14.00">description :text</text>
<text text-anchor="start" x="310" y="-147.3" font-family="Times,serif" font-size="14.00">created_at :datetime</text>
<text text-anchor="start" x="310" y="-133.3" font-family="Times,serif" font-size="14.00">updated_at :datetime</text>
<text text-anchor="start" x="310" y="-119.3" font-family="Times,serif" font-size="14.00">userid :integer</text>
</g>
<!-- Comment -->
<g id="node5" class="node"><title>Comment</title>
<path fill="none" stroke="black" d="M465.221,-98.5C465.221,-98.5 589.79,-98.5 589.79,-98.5 595.79,-98.5 601.79,-104.5 601.79,-110.5 601.79,-110.5 601.79,-228.5 601.79,-228.5 601.79,-234.5 595.79,-240.5 589.79,-240.5 589.79,-240.5 465.221,-240.5 465.221,-240.5 459.221,-240.5 453.221,-234.5 453.221,-228.5 453.221,-228.5 453.221,-110.5 453.221,-110.5 453.221,-104.5 459.221,-98.5 465.221,-98.5"/>
<text text-anchor="middle" x="527.505" y="-225.3" font-family="Times,serif" font-size="14.00">Comment</text>
<polyline fill="none" stroke="black" points="453.221,-218.5 601.79,-218.5 "/>
<text text-anchor="start" x="461.221" y="-203.3" font-family="Times,serif" font-size="14.00">id :integer</text>
<text text-anchor="start" x="461.221" y="-189.3" font-family="Times,serif" font-size="14.00">comment_type :string</text>
<text text-anchor="start" x="461.221" y="-175.3" font-family="Times,serif" font-size="14.00">commented_on :integer</text>
<text text-anchor="start" x="461.221" y="-161.3" font-family="Times,serif" font-size="14.00">comment_by :integer</text>
<text text-anchor="start" x="461.221" y="-147.3" font-family="Times,serif" font-size="14.00">comment :text</text>
<text text-anchor="start" x="461.221" y="-133.3" font-family="Times,serif" font-size="14.00">created_at :datetime</text>
<text text-anchor="start" x="461.221" y="-119.3" font-family="Times,serif" font-size="14.00">updated_at :datetime</text>
<text text-anchor="start" x="461.221" y="-105.3" font-family="Times,serif" font-size="14.00">visibility :string</text>
</g>
<!-- Medication -->
<g id="node6" class="node"><title>Medication</title>
<path fill="none" stroke="black" d="M632,-70.5C632,-70.5 741.011,-70.5 741.011,-70.5 747.011,-70.5 753.011,-76.5 753.011,-82.5 753.011,-82.5 753.011,-256.5 753.011,-256.5 753.011,-262.5 747.011,-268.5 741.011,-268.5 741.011,-268.5 632,-268.5 632,-268.5 626,-268.5 620,-262.5 620,-256.5 620,-256.5 620,-82.5 620,-82.5 620,-76.5 626,-70.5 632,-70.5"/>
<text text-anchor="middle" x="686.505" y="-253.3" font-family="Times,serif" font-size="14.00">Medication</text>
<polyline fill="none" stroke="black" points="620,-246.5 753.011,-246.5 "/>
<text text-anchor="start" x="628" y="-231.3" font-family="Times,serif" font-size="14.00">id :integer</text>
<text text-anchor="start" x="628" y="-217.3" font-family="Times,serif" font-size="14.00">name :string</text>
<text text-anchor="start" x="628" y="-203.3" font-family="Times,serif" font-size="14.00">dosage :integer</text>
<text text-anchor="start" x="628" y="-189.3" font-family="Times,serif" font-size="14.00">refill :string</text>
<text text-anchor="start" x="628" y="-175.3" font-family="Times,serif" font-size="14.00">created_at :datetime</text>
<text text-anchor="start" x="628" y="-161.3" font-family="Times,serif" font-size="14.00">updated_at :datetime</text>
<text text-anchor="start" x="628" y="-147.3" font-family="Times,serif" font-size="14.00">userid :integer</text>
<text text-anchor="start" x="628" y="-133.3" font-family="Times,serif" font-size="14.00">total :integer</text>
<text text-anchor="start" x="628" y="-119.3" font-family="Times,serif" font-size="14.00">strength :integer</text>
<text text-anchor="start" x="628" y="-105.3" font-family="Times,serif" font-size="14.00">strength_unit :string</text>
<text text-anchor="start" x="628" y="-91.3" font-family="Times,serif" font-size="14.00">dosage_unit :string</text>
<text text-anchor="start" x="628" y="-77.3" font-family="Times,serif" font-size="14.00">total_unit :string</text>
</g>
<!-- Mood -->
<g id="node7" class="node"><title>Mood</title>
<path fill="none" stroke="black" d="M783,-112.5C783,-112.5 892.011,-112.5 892.011,-112.5 898.011,-112.5 904.011,-118.5 904.011,-124.5 904.011,-124.5 904.011,-214.5 904.011,-214.5 904.011,-220.5 898.011,-226.5 892.011,-226.5 892.011,-226.5 783,-226.5 783,-226.5 777,-226.5 771,-220.5 771,-214.5 771,-214.5 771,-124.5 771,-124.5 771,-118.5 777,-112.5 783,-112.5"/>
<text text-anchor="middle" x="837.505" y="-211.3" font-family="Times,serif" font-size="14.00">Mood</text>
<polyline fill="none" stroke="black" points="771,-204.5 904.011,-204.5 "/>
<text text-anchor="start" x="779" y="-189.3" font-family="Times,serif" font-size="14.00">id :integer</text>
<text text-anchor="start" x="779" y="-175.3" font-family="Times,serif" font-size="14.00">name :string</text>
<text text-anchor="start" x="779" y="-161.3" font-family="Times,serif" font-size="14.00">description :text</text>
<text text-anchor="start" x="779" y="-147.3" font-family="Times,serif" font-size="14.00">created_at :datetime</text>
<text text-anchor="start" x="779" y="-133.3" font-family="Times,serif" font-size="14.00">updated_at :datetime</text>
<text text-anchor="start" x="779" y="-119.3" font-family="Times,serif" font-size="14.00">userid :integer</text>
</g>
<!-- Strategy -->
<g id="node8" class="node"><title>Strategy</title>
<path fill="none" stroke="black" d="M934,-91.5C934,-91.5 1043.01,-91.5 1043.01,-91.5 1049.01,-91.5 1055.01,-97.5 1055.01,-103.5 1055.01,-103.5 1055.01,-235.5 1055.01,-235.5 1055.01,-241.5 1049.01,-247.5 1043.01,-247.5 1043.01,-247.5 934,-247.5 934,-247.5 928,-247.5 922,-241.5 922,-235.5 922,-235.5 922,-103.5 922,-103.5 922,-97.5 928,-91.5 934,-91.5"/>
<text text-anchor="middle" x="988.505" y="-232.3" font-family="Times,serif" font-size="14.00">Strategy</text>
<polyline fill="none" stroke="black" points="922,-225.5 1055.01,-225.5 "/>
<text text-anchor="start" x="930" y="-210.3" font-family="Times,serif" font-size="14.00">id :integer</text>
<text text-anchor="start" x="930" y="-196.3" font-family="Times,serif" font-size="14.00">userid :integer</text>
<text text-anchor="start" x="930" y="-182.3" font-family="Times,serif" font-size="14.00">category :text</text>
<text text-anchor="start" x="930" y="-168.3" font-family="Times,serif" font-size="14.00">description :text</text>
<text text-anchor="start" x="930" y="-154.3" font-family="Times,serif" font-size="14.00">viewers :text</text>
<text text-anchor="start" x="930" y="-140.3" font-family="Times,serif" font-size="14.00">comment :boolean</text>
<text text-anchor="start" x="930" y="-126.3" font-family="Times,serif" font-size="14.00">created_at :datetime</text>
<text text-anchor="start" x="930" y="-112.3" font-family="Times,serif" font-size="14.00">updated_at :datetime</text>
<text text-anchor="start" x="930" y="-98.3" font-family="Times,serif" font-size="14.00">name :string</text>
</g>
<!-- Support -->
<g id="node9" class="node"><title>Support</title>
<path fill="none" stroke="black" d="M1085,-112.5C1085,-112.5 1194.01,-112.5 1194.01,-112.5 1200.01,-112.5 1206.01,-118.5 1206.01,-124.5 1206.01,-124.5 1206.01,-214.5 1206.01,-214.5 1206.01,-220.5 1200.01,-226.5 1194.01,-226.5 1194.01,-226.5 1085,-226.5 1085,-226.5 1079,-226.5 1073,-220.5 1073,-214.5 1073,-214.5 1073,-124.5 1073,-124.5 1073,-118.5 1079,-112.5 1085,-112.5"/>
<text text-anchor="middle" x="1139.51" y="-211.3" font-family="Times,serif" font-size="14.00">Support</text>
<polyline fill="none" stroke="black" points="1073,-204.5 1206.01,-204.5 "/>
<text text-anchor="start" x="1081" y="-189.3" font-family="Times,serif" font-size="14.00">id :integer</text>
<text text-anchor="start" x="1081" y="-175.3" font-family="Times,serif" font-size="14.00">userid :integer</text>
<text text-anchor="start" x="1081" y="-161.3" font-family="Times,serif" font-size="14.00">support_type :string</text>
<text text-anchor="start" x="1081" y="-147.3" font-family="Times,serif" font-size="14.00">support_ids :text</text>
<text text-anchor="start" x="1081" y="-133.3" font-family="Times,serif" font-size="14.00">created_at :datetime</text>
<text text-anchor="start" x="1081" y="-119.3" font-family="Times,serif" font-size="14.00">updated_at :datetime</text>
</g>
<!-- Moment -->
<g id="node10" class="node"><title>Moment</title>
<path fill="none" stroke="black" d="M1236,-70.5C1236,-70.5 1345.01,-70.5 1345.01,-70.5 1351.01,-70.5 1357.01,-76.5 1357.01,-82.5 1357.01,-82.5 1357.01,-256.5 1357.01,-256.5 1357.01,-262.5 1351.01,-268.5 1345.01,-268.5 1345.01,-268.5 1236,-268.5 1236,-268.5 1230,-268.5 1224,-262.5 1224,-256.5 1224,-256.5 1224,-82.5 1224,-82.5 1224,-76.5 1230,-70.5 1236,-70.5"/>
<text text-anchor="middle" x="1290.51" y="-253.3" font-family="Times,serif" font-size="14.00">Moment</text>
<polyline fill="none" stroke="black" points="1224,-246.5 1357.01,-246.5 "/>
<text text-anchor="start" x="1232" y="-231.3" font-family="Times,serif" font-size="14.00">id :integer</text>
<text text-anchor="start" x="1232" y="-217.3" font-family="Times,serif" font-size="14.00">category :text</text>
<text text-anchor="start" x="1232" y="-203.3" font-family="Times,serif" font-size="14.00">name :string</text>
<text text-anchor="start" x="1232" y="-189.3" font-family="Times,serif" font-size="14.00">mood :string</text>
<text text-anchor="start" x="1232" y="-175.3" font-family="Times,serif" font-size="14.00">why :text</text>
<text text-anchor="start" x="1232" y="-161.3" font-family="Times,serif" font-size="14.00">fix :text</text>
<text text-anchor="start" x="1232" y="-147.3" font-family="Times,serif" font-size="14.00">created_at :datetime</text>
<text text-anchor="start" x="1232" y="-133.3" font-family="Times,serif" font-size="14.00">updated_at :datetime</text>
<text text-anchor="start" x="1232" y="-119.3" font-family="Times,serif" font-size="14.00">userid :integer</text>
<text text-anchor="start" x="1232" y="-105.3" font-family="Times,serif" font-size="14.00">viewers :text</text>
<text text-anchor="start" x="1232" y="-91.3" font-family="Times,serif" font-size="14.00">comment :boolean</text>
<text text-anchor="start" x="1232" y="-77.3" font-family="Times,serif" font-size="14.00">strategies :text</text>
</g>
<!-- User -->
<g id="node11" class="node"><title>User</title>
<path fill="none" stroke="black" d="M1387.23,-0.5C1387.23,-0.5 1567.78,-0.5 1567.78,-0.5 1573.78,-0.5 1579.78,-6.5 1579.78,-12.5 1579.78,-12.5 1579.78,-326.5 1579.78,-326.5 1579.78,-332.5 1573.78,-338.5 1567.78,-338.5 1567.78,-338.5 1387.23,-338.5 1387.23,-338.5 1381.23,-338.5 1375.23,-332.5 1375.23,-326.5 1375.23,-326.5 1375.23,-12.5 1375.23,-12.5 1375.23,-6.5 1381.23,-0.5 1387.23,-0.5"/>
<text text-anchor="middle" x="1477.51" y="-323.3" font-family="Times,serif" font-size="14.00">User</text>
<polyline fill="none" stroke="black" points="1375.23,-316.5 1579.78,-316.5 "/>
<text text-anchor="start" x="1383.23" y="-301.3" font-family="Times,serif" font-size="14.00">id :integer</text>
<text text-anchor="start" x="1383.23" y="-287.3" font-family="Times,serif" font-size="14.00">email :string</text>
<text text-anchor="start" x="1383.23" y="-273.3" font-family="Times,serif" font-size="14.00">encrypted_password :string</text>
<text text-anchor="start" x="1383.23" y="-259.3" font-family="Times,serif" font-size="14.00">reset_password_token :string</text>
<text text-anchor="start" x="1383.23" y="-245.3" font-family="Times,serif" font-size="14.00">reset_password_sent_at :datetime</text>
<text text-anchor="start" x="1383.23" y="-231.3" font-family="Times,serif" font-size="14.00">remember_created_at :datetime</text>
<text text-anchor="start" x="1383.23" y="-217.3" font-family="Times,serif" font-size="14.00">sign_in_count :integer</text>
<text text-anchor="start" x="1383.23" y="-203.3" font-family="Times,serif" font-size="14.00">current_sign_in_at :datetime</text>
<text text-anchor="start" x="1383.23" y="-189.3" font-family="Times,serif" font-size="14.00">last_sign_in_at :datetime</text>
<text text-anchor="start" x="1383.23" y="-175.3" font-family="Times,serif" font-size="14.00">current_sign_in_ip :string</text>
<text text-anchor="start" x="1383.23" y="-161.3" font-family="Times,serif" font-size="14.00">last_sign_in_ip :string</text>
<text text-anchor="start" x="1383.23" y="-147.3" font-family="Times,serif" font-size="14.00">created_at :datetime</text>
<text text-anchor="start" x="1383.23" y="-133.3" font-family="Times,serif" font-size="14.00">updated_at :datetime</text>
<text text-anchor="start" x="1383.23" y="-119.3" font-family="Times,serif" font-size="14.00">name :string</text>
<text text-anchor="start" x="1383.23" y="-105.3" font-family="Times,serif" font-size="14.00">location :string</text>
<text text-anchor="start" x="1383.23" y="-91.3" font-family="Times,serif" font-size="14.00">timezone :string</text>
<text text-anchor="start" x="1383.23" y="-77.3" font-family="Times,serif" font-size="14.00">about :text</text>
<text text-anchor="start" x="1383.23" y="-63.3" font-family="Times,serif" font-size="14.00">avatar :string</text>
<text text-anchor="start" x="1383.23" y="-49.3" font-family="Times,serif" font-size="14.00">conditions :text</text>
<text text-anchor="start" x="1383.23" y="-35.3" font-family="Times,serif" font-size="14.00">token :string</text>
<text text-anchor="start" x="1383.23" y="-21.3" font-family="Times,serif" font-size="14.00">uid :string</text>
<text text-anchor="start" x="1383.23" y="-7.3" font-family="Times,serif" font-size="14.00">provider :string</text>
</g>
<!-- ActiveRecord::Base -->
<g id="node12" class="node"><title>ActiveRecord::Base</title>
<ellipse fill="none" stroke="black" cx="762.505" cy="-411.5" rx="81.1422" ry="18"/>
<text text-anchor="middle" x="762.505" y="-407.3" font-family="Times,serif" font-size="14.00">ActiveRecord::Base</text>
</g>
<!-- ActiveRecord::Base&#45;&gt;Alert -->
<g id="edge1" class="edge"><title>ActiveRecord::Base&#45;&gt;Alert</title>
<path fill="none" stroke="black" d="M729.94,-394.841C713.172,-387.509 692.168,-379.432 672.505,-375 557.129,-348.994 238.456,-406.74 141.505,-339 119.457,-323.595 103.803,-300.157 92.7207,-275.618"/>
</g>
<!-- ActiveRecord::Base&#45;&gt;Ally -->
<g id="edge2" class="edge"><title>ActiveRecord::Base&#45;&gt;Ally</title>
<path fill="none" stroke="black" d="M729.468,-394.881C712.757,-387.654 691.944,-379.656 672.505,-375 590.016,-355.243 361.381,-388.508 292.505,-339 256.105,-312.835 237.087,-264.894 227.326,-226.82"/>
</g>
<!-- ActiveRecord::Base&#45;&gt;Category -->
<g id="edge3" class="edge"><title>ActiveRecord::Base&#45;&gt;Category</title>
<path fill="none" stroke="black" d="M728.488,-395.039C711.894,-388.028 691.465,-380.169 672.505,-375 573.529,-348.017 526.06,-401.235 444.505,-339 408.917,-311.842 389.547,-264.247 379.287,-226.553"/>
</g>
<!-- ActiveRecord::Base&#45;&gt;Comment -->
<g id="edge4" class="edge"><title>ActiveRecord::Base&#45;&gt;Comment</title>
<path fill="none" stroke="black" d="M723.614,-395.641C684.448,-380.087 627.462,-355.654 610.505,-339 582.936,-311.923 563.105,-273.809 549.757,-240.678"/>
</g>
<!-- ActiveRecord::Base&#45;&gt;Medication -->
<g id="edge5" class="edge"><title>ActiveRecord::Base&#45;&gt;Medication</title>
<path fill="none" stroke="black" d="M757.04,-393.24C748.769,-367.122 732.461,-315.623 717.608,-268.718"/>
</g>
<!-- ActiveRecord::Base&#45;&gt;Mood -->
<g id="edge6" class="edge"><title>ActiveRecord::Base&#45;&gt;Mood</title>
<path fill="none" stroke="black" d="M767.899,-393.24C778.63,-358.9 803.074,-280.682 819.937,-226.72"/>
</g>
<!-- ActiveRecord::Base&#45;&gt;Strategy -->
<g id="edge7" class="edge"><title>ActiveRecord::Base&#45;&gt;Strategy</title>
<path fill="none" stroke="black" d="M811.701,-397.062C844.144,-386.04 885.637,-367.53 913.505,-339 938.118,-313.804 955.426,-279.15 967.163,-247.818"/>
</g>
<!-- ActiveRecord::Base&#45;&gt;Support -->
<g id="edge8" class="edge"><title>ActiveRecord::Base&#45;&gt;Support</title>
<path fill="none" stroke="black" d="M830.603,-401.51C908.357,-390.041 1029.35,-368.145 1064.51,-339 1098.65,-310.694 1117.8,-263.696 1128.19,-226.517"/>
</g>
<!-- ActiveRecord::Base&#45;&gt;Moment -->
<g id="edge9" class="edge"><title>ActiveRecord::Base&#45;&gt;Moment</title>
<path fill="none" stroke="black" d="M841.645,-406.977C955.553,-400.437 1158.33,-382.852 1215.51,-339 1238.5,-321.364 1254.61,-295.139 1265.83,-268.602"/>
</g>
<!-- ActiveRecord::Base&#45;&gt;User -->
<g id="edge10" class="edge"><title>ActiveRecord::Base&#45;&gt;User</title>
<path fill="none" stroke="black" d="M843.235,-409.25C987.095,-405.682 1280.75,-391.937 1366.51,-339 1369.34,-337.252 1372.11,-335.401 1374.83,-333.459"/>
</g>
</g>
</svg>
