<svg width="901pt" height="204" viewBox="0 0 901.28 153" xmlns="http://www.w3.org/2000/svg"><g class="graph" transform="translate(4 149)"><path fill="#fff" d="M-4 4v-153h901.277V4H-4z"/><g class="node"><text x="159.59" y="-130.6" font-family="Times,serif" font-size="13">Models diagram</text><text x="159.59" y="-117.6" font-family="Times,serif" font-size="13">Date: Mar 07 2015 - 22:07</text><text x="159.59" y="-104.6" font-family="Times,serif" font-size="13">Migration version: 20150303221447</text><text x="159.59" y="-91.6" font-family="Times,serif" font-size="13">Generated by RailRoady 1.3.0</text><text x="159.59" y="-78.6" font-family="Times,serif" font-size="13">http://railroady.prestonlee.com</text></g><g class="node"><ellipse fill="none" stroke="#000" cx="28.277" cy="-18" rx="28.056" ry="18"/><text text-anchor="middle" x="28.277" y="-13.8" font-family="Times,serif" font-size="14">Alert</text></g><g class="node"><ellipse fill="none" stroke="#000" cx="101.277" cy="-18" rx="27" ry="18"/><text text-anchor="middle" x="101.277" y="-13.8" font-family="Times,serif" font-size="14">Ally</text></g><g class="node"><ellipse fill="none" stroke="#000" cx="189.277" cy="-18" rx="42.546" ry="18"/><text text-anchor="middle" x="189.277" y="-13.8" font-family="Times,serif" font-size="14">Category</text></g><g class="node"><ellipse fill="none" stroke="#000" cx="295.277" cy="-18" rx="44.977" ry="18"/><text text-anchor="middle" x="295.277" y="-13.8" font-family="Times,serif" font-size="14">Comment</text></g><g class="node"><ellipse fill="none" stroke="#000" cx="408.277" cy="-18" rx="50.264" ry="18"/><text text-anchor="middle" x="408.277" y="-13.8" font-family="Times,serif" font-size="14">Medication</text></g><g class="node"><ellipse fill="none" stroke="#000" cx="508.277" cy="-18" rx="31.472" ry="18"/><text text-anchor="middle" x="508.277" y="-13.8" font-family="Times,serif" font-size="14">Mood</text></g><g class="node"><ellipse fill="none" stroke="#000" cx="597.277" cy="-18" rx="39.656" ry="18"/><text text-anchor="middle" x="597.277" y="-13.8" font-family="Times,serif" font-size="14">Strategy</text></g><g class="node"><ellipse fill="none" stroke="#000" cx="693.277" cy="-18" rx="38.228" ry="18"/><text text-anchor="middle" x="693.277" y="-13.8" font-family="Times,serif" font-size="14">Support</text></g><g class="node"><ellipse fill="none" stroke="#000" cx="785.277" cy="-18" rx="36.136" ry="18"/><text text-anchor="middle" x="785.277" y="-13.8" font-family="Times,serif" font-size="14">Moment</text></g><g class="node"><ellipse fill="none" stroke="#000" cx="866.277" cy="-18" rx="27" ry="18"/><text text-anchor="middle" x="866.277" y="-13.8" font-family="Times,serif" font-size="14">User</text></g><g class="node"><ellipse fill="none" stroke="#000" cx="458.277" cy="-108.5" rx="81.142" ry="18"/><text text-anchor="middle" x="458.277" y="-104.3" font-family="Times,serif" font-size="14">ActiveRecord::Base</text></g><g class="edge"><path fill="none" stroke="#000" d="M424.769-91.898c-16.65 7.131-37.273 15.052-56.492 19.898-131.498 33.155-172.462-.757-303 36-5.307 1.495-10.815 3.657-15.91 5.94"/></g><g class="edge"><path fill="none" stroke="#000" d="M424.265-92.022C407.671-85.008 387.243-77.15 368.277-72c-100.274 27.23-131.67 5.503-231 36-5.153 1.582-10.509 3.779-15.464 6.068"/></g><g class="edge"><path fill="none" stroke="#000" d="M422.235-92.334C405.901-85.707 386.258-78.078 368.277-72c-55.579 18.787-70.884 18.881-127 36-6.359 1.94-13.128 4.09-19.608 6.19"/></g><g class="edge"><path fill="none" stroke="#000" d="M429.136-91.678l-108.188 58.74"/></g><g class="edge"><path fill="none" stroke="#000" d="M448.637-90.436l-30.918 54.725"/></g><g class="edge"><path fill="none" stroke="#000" d="M467.918-90.436l31.087 55.023"/></g><g class="edge"><path fill="none" stroke="#000" d="M483.772-91.268l91.38 58.18"/></g><g class="edge"><path fill="none" stroke="#000" d="M497.611-92.687l166.608 62.744"/></g><g class="edge"><path fill="none" stroke="#000" d="M513.912-95.35C571.168-82.39 662.707-60.4 740.277-36c5.736 1.804 11.805 3.938 17.566 6.074"/></g><g class="edge"><path fill="none" stroke="#000" d="M528.499-99.357C604.292-89.34 727.903-69.419 830.277-36c5.125 1.673 10.469 3.905 15.423 6.2"/></g></g></svg>