<?xml version="1.0" encoding="UTF-8" standalone="no"?>
<!DOCTYPE svg PUBLIC "-//W3C//DTD SVG 1.1//EN"
 "http://www.w3.org/Graphics/SVG/1.1/DTD/svg11.dtd">
<!-- Generated by graphviz version 2.38.0 (20140413.2041)
 -->
<!-- Title: models_diagram Pages: 1 -->
<svg width="1813pt" height="333pt"
 viewBox="0.00 0.00 1812.97 333.00" xmlns="http://www.w3.org/2000/svg" xmlns:xlink="http://www.w3.org/1999/xlink">
<g id="graph0" class="graph" transform="scale(1 1) rotate(0) translate(4 329)">
<title>models_diagram</title>
<polygon fill="white" stroke="none" points="-4,4 -4,-329 1808.97,-329 1808.97,4 -4,4"/>
<!-- _diagram_info -->
<g id="node1" class="node"><title>_diagram_info</title>
<text text-anchor="start" x="8" y="-184.6" font-family="Times,serif" font-size="13.00">Models diagram</text>
<text text-anchor="start" x="8" y="-171.6" font-family="Times,serif" font-size="13.00">Date: Mar 07 2015 &#45; 21:41</text>
<text text-anchor="start" x="8" y="-158.6" font-family="Times,serif" font-size="13.00">Migration version: 20150305005920</text>
<text text-anchor="start" x="8" y="-145.6" font-family="Times,serif" font-size="13.00">Generated by RailRoady 1.3.0</text>
<text text-anchor="start" x="8" y="-132.6" font-family="Times,serif" font-size="13.00">http://railroady.prestonlee.com</text>
</g>
<!-- Alert -->
<g id="node2" class="node"><title>Alert</title>
<path fill="none" stroke="black" d="M237.182,-56.5C237.182,-56.5 346.193,-56.5 346.193,-56.5 352.193,-56.5 358.193,-62.5 358.193,-68.5 358.193,-68.5 358.193,-256.5 358.193,-256.5 358.193,-262.5 352.193,-268.5 346.193,-268.5 346.193,-268.5 237.182,-268.5 237.182,-268.5 231.182,-268.5 225.182,-262.5 225.182,-256.5 225.182,-256.5 225.182,-68.5 225.182,-68.5 225.182,-62.5 231.182,-56.5 237.182,-56.5"/>
<text text-anchor="middle" x="291.688" y="-253.3" font-family="Times,serif" font-size="14.00">Alert</text>
<polyline fill="none" stroke="black" points="225.182,-246.5 358.193,-246.5 "/>
<text text-anchor="start" x="233.182" y="-231.3" font-family="Times,serif" font-size="14.00">id :integer</text>
<text text-anchor="start" x="233.182" y="-217.3" font-family="Times,serif" font-size="14.00">userid :integer</text>
<text text-anchor="start" x="233.182" y="-203.3" font-family="Times,serif" font-size="14.00">trigger :integer</text>
<text text-anchor="start" x="233.182" y="-189.3" font-family="Times,serif" font-size="14.00">medication :integer</text>
<text text-anchor="start" x="233.182" y="-175.3" font-family="Times,serif" font-size="14.00">message :string</text>
<text text-anchor="start" x="233.182" y="-161.3" font-family="Times,serif" font-size="14.00">means :string</text>
<text text-anchor="start" x="233.182" y="-147.3" font-family="Times,serif" font-size="14.00">days :string</text>
<text text-anchor="start" x="233.182" y="-133.3" font-family="Times,serif" font-size="14.00">time_hour :string</text>
<text text-anchor="start" x="233.182" y="-119.3" font-family="Times,serif" font-size="14.00">created_at :datetime</text>
<text text-anchor="start" x="233.182" y="-105.3" font-family="Times,serif" font-size="14.00">updated_at :datetime</text>
<text text-anchor="start" x="233.182" y="-91.3" font-family="Times,serif" font-size="14.00">name :string</text>
<text text-anchor="start" x="233.182" y="-77.3" font-family="Times,serif" font-size="14.00">time_minute :string</text>
<text text-anchor="start" x="233.182" y="-63.3" font-family="Times,serif" font-size="14.00">time_period :string</text>
</g>
<!-- Ally -->
<g id="node3" class="node"><title>Ally</title>
<path fill="none" stroke="black" d="M388.182,-105.5C388.182,-105.5 497.193,-105.5 497.193,-105.5 503.193,-105.5 509.193,-111.5 509.193,-117.5 509.193,-117.5 509.193,-207.5 509.193,-207.5 509.193,-213.5 503.193,-219.5 497.193,-219.5 497.193,-219.5 388.182,-219.5 388.182,-219.5 382.182,-219.5 376.182,-213.5 376.182,-207.5 376.182,-207.5 376.182,-117.5 376.182,-117.5 376.182,-111.5 382.182,-105.5 388.182,-105.5"/>
<text text-anchor="middle" x="442.688" y="-204.3" font-family="Times,serif" font-size="14.00">Ally</text>
<polyline fill="none" stroke="black" points="376.182,-197.5 509.193,-197.5 "/>
<text text-anchor="start" x="384.182" y="-182.3" font-family="Times,serif" font-size="14.00">id :integer</text>
<text text-anchor="start" x="384.182" y="-168.3" font-family="Times,serif" font-size="14.00">userid1 :integer</text>
<text text-anchor="start" x="384.182" y="-154.3" font-family="Times,serif" font-size="14.00">created_at :datetime</text>
<text text-anchor="start" x="384.182" y="-140.3" font-family="Times,serif" font-size="14.00">updated_at :datetime</text>
<text text-anchor="start" x="384.182" y="-126.3" font-family="Times,serif" font-size="14.00">userid2 :integer</text>
<text text-anchor="start" x="384.182" y="-112.3" font-family="Times,serif" font-size="14.00">status :integer</text>
</g>
<!-- Category -->
<g id="node4" class="node"><title>Category</title>
<path fill="none" stroke="black" d="M539.182,-105.5C539.182,-105.5 648.193,-105.5 648.193,-105.5 654.193,-105.5 660.193,-111.5 660.193,-117.5 660.193,-117.5 660.193,-207.5 660.193,-207.5 660.193,-213.5 654.193,-219.5 648.193,-219.5 648.193,-219.5 539.182,-219.5 539.182,-219.5 533.182,-219.5 527.182,-213.5 527.182,-207.5 527.182,-207.5 527.182,-117.5 527.182,-117.5 527.182,-111.5 533.182,-105.5 539.182,-105.5"/>
<text text-anchor="middle" x="593.688" y="-204.3" font-family="Times,serif" font-size="14.00">Category</text>
<polyline fill="none" stroke="black" points="527.182,-197.5 660.193,-197.5 "/>
<text text-anchor="start" x="535.182" y="-182.3" font-family="Times,serif" font-size="14.00">id :integer</text>
<text text-anchor="start" x="535.182" y="-168.3" font-family="Times,serif" font-size="14.00">name :string</text>
<text text-anchor="start" x="535.182" y="-154.3" font-family="Times,serif" font-size="14.00">description :text</text>
<text text-anchor="start" x="535.182" y="-140.3" font-family="Times,serif" font-size="14.00">created_at :datetime</text>
<text text-anchor="start" x="535.182" y="-126.3" font-family="Times,serif" font-size="14.00">updated_at :datetime</text>
<text text-anchor="start" x="535.182" y="-112.3" font-family="Times,serif" font-size="14.00">userid :integer</text>
</g>
<!-- Comment -->
<g id="node5" class="node"><title>Comment</title>
<path fill="none" stroke="black" d="M690.403,-91.5C690.403,-91.5 814.972,-91.5 814.972,-91.5 820.972,-91.5 826.972,-97.5 826.972,-103.5 826.972,-103.5 826.972,-221.5 826.972,-221.5 826.972,-227.5 820.972,-233.5 814.972,-233.5 814.972,-233.5 690.403,-233.5 690.403,-233.5 684.403,-233.5 678.403,-227.5 678.403,-221.5 678.403,-221.5 678.403,-103.5 678.403,-103.5 678.403,-97.5 684.403,-91.5 690.403,-91.5"/>
<text text-anchor="middle" x="752.688" y="-218.3" font-family="Times,serif" font-size="14.00">Comment</text>
<polyline fill="none" stroke="black" points="678.403,-211.5 826.972,-211.5 "/>
<text text-anchor="start" x="686.403" y="-196.3" font-family="Times,serif" font-size="14.00">id :integer</text>
<text text-anchor="start" x="686.403" y="-182.3" font-family="Times,serif" font-size="14.00">comment_type :string</text>
<text text-anchor="start" x="686.403" y="-168.3" font-family="Times,serif" font-size="14.00">commented_on :integer</text>
<text text-anchor="start" x="686.403" y="-154.3" font-family="Times,serif" font-size="14.00">comment_by :integer</text>
<text text-anchor="start" x="686.403" y="-140.3" font-family="Times,serif" font-size="14.00">comment :text</text>
<text text-anchor="start" x="686.403" y="-126.3" font-family="Times,serif" font-size="14.00">created_at :datetime</text>
<text text-anchor="start" x="686.403" y="-112.3" font-family="Times,serif" font-size="14.00">updated_at :datetime</text>
<text text-anchor="start" x="686.403" y="-98.3" font-family="Times,serif" font-size="14.00">visibility :string</text>
</g>
<!-- Medication -->
<g id="node6" class="node"><title>Medication</title>
<path fill="none" stroke="black" d="M857.182,-63.5C857.182,-63.5 966.193,-63.5 966.193,-63.5 972.193,-63.5 978.193,-69.5 978.193,-75.5 978.193,-75.5 978.193,-249.5 978.193,-249.5 978.193,-255.5 972.193,-261.5 966.193,-261.5 966.193,-261.5 857.182,-261.5 857.182,-261.5 851.182,-261.5 845.182,-255.5 845.182,-249.5 845.182,-249.5 845.182,-75.5 845.182,-75.5 845.182,-69.5 851.182,-63.5 857.182,-63.5"/>
<text text-anchor="middle" x="911.688" y="-246.3" font-family="Times,serif" font-size="14.00">Medication</text>
<polyline fill="none" stroke="black" points="845.182,-239.5 978.193,-239.5 "/>
<text text-anchor="start" x="853.182" y="-224.3" font-family="Times,serif" font-size="14.00">id :integer</text>
<text text-anchor="start" x="853.182" y="-210.3" font-family="Times,serif" font-size="14.00">name :string</text>
<text text-anchor="start" x="853.182" y="-196.3" font-family="Times,serif" font-size="14.00">dosage :integer</text>
<text text-anchor="start" x="853.182" y="-182.3" font-family="Times,serif" font-size="14.00">refill :string</text>
<text text-anchor="start" x="853.182" y="-168.3" font-family="Times,serif" font-size="14.00">created_at :datetime</text>
<text text-anchor="start" x="853.182" y="-154.3" font-family="Times,serif" font-size="14.00">updated_at :datetime</text>
<text text-anchor="start" x="853.182" y="-140.3" font-family="Times,serif" font-size="14.00">userid :integer</text>
<text text-anchor="start" x="853.182" y="-126.3" font-family="Times,serif" font-size="14.00">total :integer</text>
<text text-anchor="start" x="853.182" y="-112.3" font-family="Times,serif" font-size="14.00">strength :integer</text>
<text text-anchor="start" x="853.182" y="-98.3" font-family="Times,serif" font-size="14.00">strength_unit :string</text>
<text text-anchor="start" x="853.182" y="-84.3" font-family="Times,serif" font-size="14.00">dosage_unit :string</text>
<text text-anchor="start" x="853.182" y="-70.3" font-family="Times,serif" font-size="14.00">total_unit :string</text>
</g>
<!-- Mood -->
<g id="node7" class="node"><title>Mood</title>
<path fill="none" stroke="black" d="M1008.18,-105.5C1008.18,-105.5 1117.19,-105.5 1117.19,-105.5 1123.19,-105.5 1129.19,-111.5 1129.19,-117.5 1129.19,-117.5 1129.19,-207.5 1129.19,-207.5 1129.19,-213.5 1123.19,-219.5 1117.19,-219.5 1117.19,-219.5 1008.18,-219.5 1008.18,-219.5 1002.18,-219.5 996.182,-213.5 996.182,-207.5 996.182,-207.5 996.182,-117.5 996.182,-117.5 996.182,-111.5 1002.18,-105.5 1008.18,-105.5"/>
<text text-anchor="middle" x="1062.69" y="-204.3" font-family="Times,serif" font-size="14.00">Mood</text>
<polyline fill="none" stroke="black" points="996.182,-197.5 1129.19,-197.5 "/>
<text text-anchor="start" x="1004.18" y="-182.3" font-family="Times,serif" font-size="14.00">id :integer</text>
<text text-anchor="start" x="1004.18" y="-168.3" font-family="Times,serif" font-size="14.00">name :string</text>
<text text-anchor="start" x="1004.18" y="-154.3" font-family="Times,serif" font-size="14.00">description :text</text>
<text text-anchor="start" x="1004.18" y="-140.3" font-family="Times,serif" font-size="14.00">created_at :datetime</text>
<text text-anchor="start" x="1004.18" y="-126.3" font-family="Times,serif" font-size="14.00">updated_at :datetime</text>
<text text-anchor="start" x="1004.18" y="-112.3" font-family="Times,serif" font-size="14.00">userid :integer</text>
</g>
<!-- Strategy -->
<g id="node8" class="node"><title>Strategy</title>
<path fill="none" stroke="black" d="M1159.18,-84.5C1159.18,-84.5 1268.19,-84.5 1268.19,-84.5 1274.19,-84.5 1280.19,-90.5 1280.19,-96.5 1280.19,-96.5 1280.19,-228.5 1280.19,-228.5 1280.19,-234.5 1274.19,-240.5 1268.19,-240.5 1268.19,-240.5 1159.18,-240.5 1159.18,-240.5 1153.18,-240.5 1147.18,-234.5 1147.18,-228.5 1147.18,-228.5 1147.18,-96.5 1147.18,-96.5 1147.18,-90.5 1153.18,-84.5 1159.18,-84.5"/>
<text text-anchor="middle" x="1213.69" y="-225.3" font-family="Times,serif" font-size="14.00">Strategy</text>
<polyline fill="none" stroke="black" points="1147.18,-218.5 1280.19,-218.5 "/>
<text text-anchor="start" x="1155.18" y="-203.3" font-family="Times,serif" font-size="14.00">id :integer</text>
<text text-anchor="start" x="1155.18" y="-189.3" font-family="Times,serif" font-size="14.00">userid :integer</text>
<text text-anchor="start" x="1155.18" y="-175.3" font-family="Times,serif" font-size="14.00">category :text</text>
<text text-anchor="start" x="1155.18" y="-161.3" font-family="Times,serif" font-size="14.00">description :text</text>
<text text-anchor="start" x="1155.18" y="-147.3" font-family="Times,serif" font-size="14.00">viewers :text</text>
<text text-anchor="start" x="1155.18" y="-133.3" font-family="Times,serif" font-size="14.00">comment :boolean</text>
<text text-anchor="start" x="1155.18" y="-119.3" font-family="Times,serif" font-size="14.00">created_at :datetime</text>
<text text-anchor="start" x="1155.18" y="-105.3" font-family="Times,serif" font-size="14.00">updated_at :datetime</text>
<text text-anchor="start" x="1155.18" y="-91.3" font-family="Times,serif" font-size="14.00">name :string</text>
</g>
<!-- Support -->
<g id="node9" class="node"><title>Support</title>
<path fill="none" stroke="black" d="M1310.18,-105.5C1310.18,-105.5 1419.19,-105.5 1419.19,-105.5 1425.19,-105.5 1431.19,-111.5 1431.19,-117.5 1431.19,-117.5 1431.19,-207.5 1431.19,-207.5 1431.19,-213.5 1425.19,-219.5 1419.19,-219.5 1419.19,-219.5 1310.18,-219.5 1310.18,-219.5 1304.18,-219.5 1298.18,-213.5 1298.18,-207.5 1298.18,-207.5 1298.18,-117.5 1298.18,-117.5 1298.18,-111.5 1304.18,-105.5 1310.18,-105.5"/>
<text text-anchor="middle" x="1364.69" y="-204.3" font-family="Times,serif" font-size="14.00">Support</text>
<polyline fill="none" stroke="black" points="1298.18,-197.5 1431.19,-197.5 "/>
<text text-anchor="start" x="1306.18" y="-182.3" font-family="Times,serif" font-size="14.00">id :integer</text>
<text text-anchor="start" x="1306.18" y="-168.3" font-family="Times,serif" font-size="14.00">userid :integer</text>
<text text-anchor="start" x="1306.18" y="-154.3" font-family="Times,serif" font-size="14.00">support_type :string</text>
<text text-anchor="start" x="1306.18" y="-140.3" font-family="Times,serif" font-size="14.00">support_ids :text</text>
<text text-anchor="start" x="1306.18" y="-126.3" font-family="Times,serif" font-size="14.00">created_at :datetime</text>
<text text-anchor="start" x="1306.18" y="-112.3" font-family="Times,serif" font-size="14.00">updated_at :datetime</text>
</g>
<!-- Trigger -->
<g id="node10" class="node"><title>Trigger</title>
<path fill="none" stroke="black" d="M1461.18,-63.5C1461.18,-63.5 1570.19,-63.5 1570.19,-63.5 1576.19,-63.5 1582.19,-69.5 1582.19,-75.5 1582.19,-75.5 1582.19,-249.5 1582.19,-249.5 1582.19,-255.5 1576.19,-261.5 1570.19,-261.5 1570.19,-261.5 1461.18,-261.5 1461.18,-261.5 1455.18,-261.5 1449.18,-255.5 1449.18,-249.5 1449.18,-249.5 1449.18,-75.5 1449.18,-75.5 1449.18,-69.5 1455.18,-63.5 1461.18,-63.5"/>
<text text-anchor="middle" x="1515.69" y="-246.3" font-family="Times,serif" font-size="14.00">Trigger</text>
<polyline fill="none" stroke="black" points="1449.18,-239.5 1582.19,-239.5 "/>
<text text-anchor="start" x="1457.18" y="-224.3" font-family="Times,serif" font-size="14.00">id :integer</text>
<text text-anchor="start" x="1457.18" y="-210.3" font-family="Times,serif" font-size="14.00">category :text</text>
<text text-anchor="start" x="1457.18" y="-196.3" font-family="Times,serif" font-size="14.00">name :string</text>
<text text-anchor="start" x="1457.18" y="-182.3" font-family="Times,serif" font-size="14.00">mood :string</text>
<text text-anchor="start" x="1457.18" y="-168.3" font-family="Times,serif" font-size="14.00">why :text</text>
<text text-anchor="start" x="1457.18" y="-154.3" font-family="Times,serif" font-size="14.00">fix :text</text>
<text text-anchor="start" x="1457.18" y="-140.3" font-family="Times,serif" font-size="14.00">created_at :datetime</text>
<text text-anchor="start" x="1457.18" y="-126.3" font-family="Times,serif" font-size="14.00">updated_at :datetime</text>
<text text-anchor="start" x="1457.18" y="-112.3" font-family="Times,serif" font-size="14.00">userid :integer</text>
<text text-anchor="start" x="1457.18" y="-98.3" font-family="Times,serif" font-size="14.00">viewers :text</text>
<text text-anchor="start" x="1457.18" y="-84.3" font-family="Times,serif" font-size="14.00">comment :boolean</text>
<text text-anchor="start" x="1457.18" y="-70.3" font-family="Times,serif" font-size="14.00">strategies :text</text>
</g>
<!-- User -->
<g id="node11" class="node"><title>User</title>
<path fill="none" stroke="black" d="M1612.41,-0.5C1612.41,-0.5 1792.97,-0.5 1792.97,-0.5 1798.97,-0.5 1804.97,-6.5 1804.97,-12.5 1804.97,-12.5 1804.97,-312.5 1804.97,-312.5 1804.97,-318.5 1798.97,-324.5 1792.97,-324.5 1792.97,-324.5 1612.41,-324.5 1612.41,-324.5 1606.41,-324.5 1600.41,-318.5 1600.41,-312.5 1600.41,-312.5 1600.41,-12.5 1600.41,-12.5 1600.41,-6.5 1606.41,-0.5 1612.41,-0.5"/>
<text text-anchor="middle" x="1702.69" y="-309.3" font-family="Times,serif" font-size="14.00">User</text>
<polyline fill="none" stroke="black" points="1600.41,-302.5 1804.97,-302.5 "/>
<text text-anchor="start" x="1608.41" y="-287.3" font-family="Times,serif" font-size="14.00">id :integer</text>
<text text-anchor="start" x="1608.41" y="-273.3" font-family="Times,serif" font-size="14.00">email :string</text>
<text text-anchor="start" x="1608.41" y="-259.3" font-family="Times,serif" font-size="14.00">encrypted_password :string</text>
<text text-anchor="start" x="1608.41" y="-245.3" font-family="Times,serif" font-size="14.00">reset_password_token :string</text>
<text text-anchor="start" x="1608.41" y="-231.3" font-family="Times,serif" font-size="14.00">reset_password_sent_at :datetime</text>
<text text-anchor="start" x="1608.41" y="-217.3" font-family="Times,serif" font-size="14.00">remember_created_at :datetime</text>
<text text-anchor="start" x="1608.41" y="-203.3" font-family="Times,serif" font-size="14.00">sign_in_count :integer</text>
<text text-anchor="start" x="1608.41" y="-189.3" font-family="Times,serif" font-size="14.00">current_sign_in_at :datetime</text>
<text text-anchor="start" x="1608.41" y="-175.3" font-family="Times,serif" font-size="14.00">last_sign_in_at :datetime</text>
<text text-anchor="start" x="1608.41" y="-161.3" font-family="Times,serif" font-size="14.00">current_sign_in_ip :string</text>
<text text-anchor="start" x="1608.41" y="-147.3" font-family="Times,serif" font-size="14.00">last_sign_in_ip :string</text>
<text text-anchor="start" x="1608.41" y="-133.3" font-family="Times,serif" font-size="14.00">created_at :datetime</text>
<text text-anchor="start" x="1608.41" y="-119.3" font-family="Times,serif" font-size="14.00">updated_at :datetime</text>
<text text-anchor="start" x="1608.41" y="-105.3" font-family="Times,serif" font-size="14.00">name :string</text>
<text text-anchor="start" x="1608.41" y="-91.3" font-family="Times,serif" font-size="14.00">location :string</text>
<text text-anchor="start" x="1608.41" y="-77.3" font-family="Times,serif" font-size="14.00">timezone :string</text>
<text text-anchor="start" x="1608.41" y="-63.3" font-family="Times,serif" font-size="14.00">about :text</text>
<text text-anchor="start" x="1608.41" y="-49.3" font-family="Times,serif" font-size="14.00">avatar :string</text>
<text text-anchor="start" x="1608.41" y="-35.3" font-family="Times,serif" font-size="14.00">token :string</text>
<text text-anchor="start" x="1608.41" y="-21.3" font-family="Times,serif" font-size="14.00">uid :string</text>
<text text-anchor="start" x="1608.41" y="-7.3" font-family="Times,serif" font-size="14.00">provider :string</text>
</g>
</g>
</svg>
