<svg width="35" height="9" padding-right="10px" viewBox="0 0 15 8" version="1.1" xmlns="http://www.w3.org/2000/svg" xmlns:xlink="http://www.w3.org/1999/xlink">
	<g id="Canvas" transform="translate(-7801 1033)">
		<g id="Scroll Indicator">
			<use xlink:href="#path0_stroke" transform="matrix(1 0 0 -1 7802 -1027.23)" fill="#FFFFFF" />
		</g>
	</g>
	<defs>
		<path id="path0_stroke" d="M 13 4.43651L 12.171 5.68664L 13.8453 3.19736L 13 4.43651ZM 0 4.43651L -0.861203 3.20837L 0.845292 5.67565L 0 4.43651ZM 5.65471 1.24163L 12.1547 5.67565L 13.8453 3.19736L 7.34529 -1.23666L 5.65471 1.24163ZM 13 4.43651C 13.829 3.18637 13.8289 3.18636 13.8289 3.18633C 13.8288 3.1863 13.8288 3.18626 13.8287 3.1862C 13.8285 3.18607 13.8282 3.18588 13.8278 3.18563C 13.8271 3.18512 13.8259 3.18436 13.8244 3.18334C 13.8213 3.18128 13.8167 3.17823 13.8106 3.17418C 13.7983 3.16605 13.7802 3.15404 13.7565 3.1383C 13.709 3.10677 13.6395 3.06062 13.5508 3.00172C 13.3733 2.88378 13.1202 2.71545 12.8161 2.51281C 12.2074 2.10726 11.3976 1.56646 10.5872 1.02133C 9.77671 0.476193 8.97228 -0.0687008 8.36893 -0.48606C 8.06898 -0.693517 7.83059 -0.861078 7.66358 -0.983042C 7.58416 -1.04094 7.54298 -1.07181 7.51437 -1.09512C 7.50765 -1.10033 7.57532 -1.03966 7.55667 -1.05672C 7.57027 -1.04368 7.62195 -0.994073 7.68097 -0.919484C 7.70968 -0.883205 7.76744 -0.807055 7.82453 -0.700073C 7.86543 -0.62343 8 -0.36316 8 0.00248238L 5 0.00248238C 5 0.370061 5.13536 0.632779 5.17784 0.712372C 5.21883 0.784509 5.29468 0.897945 5.32845 0.942135C 5.37327 0.996472 5.44779 1.07681 5.48062 1.10893C 5.52387 1.14956 5.59074 1.20736 5.63162 1.24053C 5.69823 1.29397 5.7967 1.36841 5.89502 1.44022C 6.08347 1.57769 6.3529 1.76719 6.66232 1.98123C 7.27772 2.40687 8.09829 2.96273 8.91282 3.51061C 9.72737 4.0585 10.5426 4.60296 11.1527 5.00942C 11.4579 5.21279 11.7126 5.38216 11.8906 5.50042C 11.9797 5.55961 12.0498 5.60618 12.0975 5.63784C 12.1214 5.6537 12.1398 5.66591 12.1521 5.6741C 12.1583 5.67821 12.1631 5.68134 12.1662 5.68343C 12.1678 5.68448 12.169 5.68528 12.1698 5.68581C 12.1702 5.68608 12.1705 5.68629 12.1707 5.68642C 12.1708 5.68649 12.1709 5.68655 12.171 5.68658C 12.171 5.68662 12.171 5.68664 13 4.43651ZM 8 0.00248238C 8 -0.501201 7.73559 -1.05289 7.1798 -1.33608C 6.79034 -1.53452 6.43651 -1.50159 6.34512 -1.4924C 6.114 -1.46914 5.94027 -1.39493 5.91746 -1.38567C 5.84661 -1.35547 5.74517 -1.30509 5.69587 -1.2779C 5.62301 -1.2369 5.51705 -1.17251 5.41708 -1.10914C 5.22747 -0.98876 4.95682 -0.809874 4.6472 -0.601629C 4.03175 -0.18764 3.21119 0.375999 2.3967 0.939375C 1.58222 1.50275 0.767077 2.07046 0.157045 2.49629C -0.148168 2.70934 -0.402824 2.88743 -0.580783 3.01197C -0.669855 3.07431 -0.739978 3.12342 -0.787681 3.15684C -0.811576 3.17358 -0.82996 3.18647 -0.842303 3.19512C -0.848496 3.19946 -0.853221 3.20277 -0.856367 3.20498C -0.85795 3.20609 -0.859159 3.20693 -0.859957 3.20749C -0.860361 3.20778 -0.860672 3.20799 -0.860875 3.20814C -0.860979 3.20821 -0.861061 3.20827 -0.861113 3.2083C -0.86117 3.20834 -0.861203 3.20837 0 4.43651C 0.861203 5.66465 0.86122 5.66464 0.861262 5.66461C 0.861308 5.66457 0.861375 5.66453 0.861469 5.66446C 0.861661 5.66433 0.861942 5.66413 0.862325 5.66386C 0.863102 5.66332 0.864248 5.66251 0.865789 5.66143C 0.868892 5.65926 0.873489 5.65603 0.879596 5.65175C 0.89185 5.64316 0.909965 5.63047 0.933677 5.61386C 0.981189 5.58057 1.05071 5.53188 1.13938 5.46983C 1.31689 5.34559 1.57004 5.16856 1.87421 4.95624C 2.48292 4.53132 3.29278 3.96729 4.1033 3.40666C 4.91381 2.84604 5.71825 2.29343 6.32155 1.88766C 6.6213 1.68602 6.85846 1.52915 7.02433 1.42399C 7.10209 1.37458 7.18049 1.32945 7.15813 1.3416C 7.15713 1.34222 7.13094 1.35592 7.1372 1.35263C 7.14998 1.34637 7.01574 1.40678 7.04525 1.39427C 7.03473 1.39854 6.87033 1.4699 6.64545 1.49253C 6.55719 1.50141 6.20572 1.53458 5.81783 1.33694C 5.26362 1.05456 5 0.50423 5 0.00248238L 8 0.00248238ZM 0.845292 5.67565L 7.34529 1.24163L 5.65471 -1.23666L -0.845292 3.19736L 0.845292 5.67565Z" />
	</defs>
</svg>
